<?xml version="1.0" encoding="utf-8"?>
<!-- Generator: Adobe Illustrator 16.0.0, SVG Export Plug-In . SVG Version: 6.00 Build 0)  -->
<!DOCTYPE svg PUBLIC "-//W3C//DTD SVG 1.1//EN" "http://www.w3.org/Graphics/SVG/1.1/DTD/svg11.dtd">
<svg version="1.1" id="Layer_1" xmlns="http://www.w3.org/2000/svg" xmlns:xlink="http://www.w3.org/1999/xlink" x="0px" y="0px"
	 width="500px" height="397.083px" viewBox="0 0 500 397.083" enable-background="new 0 0 500 397.083" xml:space="preserve">
<g>
	<g>
		<ellipse fill="#F6F6F6" cx="252.056" cy="260.325" rx="131.735" ry="15.697"/>
	</g>
	<g>
		<g>
			<g>
				<path fill="#9E9E9D" d="M170.181,117.169c-9.586-0.922-17.895,2.408-22.071,11.415c-3.921,8.455-3.785,18.535-3.791,27.652
					c-0.001,1.844,2.858,1.844,2.859,0c0.006-8.193,0.046-16.62,2.713-24.46c3.143-9.24,10.982-12.643,20.29-11.748
					C172.016,120.205,171.999,117.344,170.181,117.169L170.181,117.169z"/>
			</g>
		</g>
		<g>
			<g>
				<g>
					<path fill="#9E9E9D" d="M152.794,159.123c-1.878-0.822-3.87-1.2-5.188-2.9c-0.752-0.971-2.091,0.389-1.348,1.348
						c1.443,1.861,3.524,2.301,5.574,3.197C152.947,161.255,153.918,159.613,152.794,159.123L152.794,159.123z"/>
				</g>
			</g>
			<g>
				<g>
					<path fill="#9E9E9D" d="M145.799,157.076c-0.427,3.198,0.123,6.421-0.325,9.612c-0.168,1.202,1.668,1.72,1.838,0.507
						c0.472-3.366-0.056-6.753,0.393-10.119C147.868,155.86,145.959,155.876,145.799,157.076L145.799,157.076z"/>
				</g>
			</g>
			<g>
				<g>
					<path fill="#9E9E9D" d="M144.495,157.133c-1.787,2.405-2.401,5.359-3.946,7.894c-0.642,1.053,1.007,2.01,1.646,0.962
						c1.544-2.533,2.162-5.492,3.946-7.894C146.875,157.106,145.219,156.158,144.495,157.133L144.495,157.133z"/>
				</g>
			</g>
			<g>
				<g>
					<path fill="#9E9E9D" d="M144.285,156.042c-2.212,1.872-4.214,4.049-6.804,5.414c-1.088,0.573-0.124,2.218,0.962,1.646
						c2.732-1.439,4.855-3.737,7.189-5.711C146.573,156.595,145.217,155.253,144.285,156.042L144.285,156.042z"/>
				</g>
			</g>
		</g>
	</g>
	<g>
		<g>
			<g>
				<path fill="#9E9E9D" d="M334.424,92.47c9.499-0.914,16.914,2.565,20.291,11.748c2.832,7.703,2.707,16.369,2.712,24.46
					c0.001,1.844,2.86,1.844,2.859,0c-0.006-9.28-0.068-18.985-3.79-27.653c-3.899-9.083-12.712-12.315-22.072-11.415
					C332.605,89.785,332.59,92.646,334.424,92.47L334.424,92.47z"/>
			</g>
		</g>
		<g>
			<g>
				<g>
					<path fill="#9E9E9D" d="M352.775,133.209c2.049-0.897,4.13-1.337,5.573-3.197c0.744-0.958-0.595-2.318-1.349-1.348
						c-1.317,1.699-3.309,2.077-5.187,2.899C350.688,132.055,351.66,133.697,352.775,133.209L352.775,133.209z"/>
				</g>
			</g>
			<g>
				<g>
					<path fill="#9E9E9D" d="M356.9,129.517c0.448,3.366-0.079,6.753,0.394,10.119c0.17,1.213,2.008,0.695,1.838-0.507
						c-0.447-3.19,0.101-6.415-0.325-9.612C358.647,128.317,356.74,128.301,356.9,129.517L356.9,129.517z"/>
				</g>
			</g>
			<g>
				<g>
					<path fill="#9E9E9D" d="M358.468,130.536c1.782,2.402,2.4,5.361,3.944,7.894c0.638,1.047,2.288,0.09,1.646-0.962
						c-1.546-2.534-2.16-5.488-3.945-7.894C359.39,128.599,357.733,129.547,358.468,130.536L358.468,130.536z"/>
				</g>
			</g>
			<g>
				<g>
					<path fill="#9E9E9D" d="M358.973,129.831c2.333,1.975,4.457,4.271,7.188,5.711c1.087,0.572,2.051-1.073,0.962-1.646
						c-2.588-1.364-4.592-3.541-6.803-5.413C359.388,127.694,358.032,129.036,358.973,129.831L358.973,129.831z"/>
				</g>
			</g>
		</g>
	</g>
	<g>
		<g>
			<path fill="#EEEEEE" d="M341.742,249.276 M320.537,270.47 M341.742,249.276V17.109H162.09v253.36h158.447 M174.96,36.567
				c-6.493,0-6.493-10.093,0-10.093C181.452,26.474,181.452,36.567,174.96,36.567z M191.949,36.567c-6.493,0-6.493-10.093,0-10.093
				C198.441,26.474,198.441,36.567,191.949,36.567z M209.19,36.694c-6.492,0-6.492-10.093,0-10.093S215.682,36.694,209.19,36.694z
				 M226.306,36.441c-6.493,0-6.493-10.093,0-10.093C232.798,26.349,232.798,36.441,226.306,36.441z M243.295,36.567
				c-6.493,0-6.493-10.093,0-10.093S249.788,36.567,243.295,36.567z M260.409,36.441c-6.493,0-6.493-10.093,0-10.093
				S266.902,36.441,260.409,36.441z M277.524,36.567c-6.493,0-6.493-10.093,0-10.093S284.018,36.567,277.524,36.567z M294.64,36.441
				c-6.492,0-6.492-10.093,0-10.093C301.134,26.349,301.134,36.441,294.64,36.441z M311.881,36.567c-6.493,0-6.493-10.093,0-10.093
				C318.373,26.474,318.373,36.567,311.881,36.567z M328.871,36.567c-6.494,0-6.494-10.093,0-10.093
				C335.364,26.474,335.364,36.567,328.871,36.567z"/>
		</g>
		<g>
			<g>
				<rect x="162.2" y="64.861" fill-rule="evenodd" clip-rule="evenodd" fill="#C7C7C7" width="179.653" height="1.138"/>
			</g>
			<g>
				<rect x="162.2" y="78.504" fill-rule="evenodd" clip-rule="evenodd" fill="#C7C7C7" width="179.653" height="1.137"/>
			</g>
			<g>
				<rect x="162.2" y="92.14" fill-rule="evenodd" clip-rule="evenodd" fill="#C7C7C7" width="179.653" height="1.134"/>
			</g>
			<g>
				<rect x="162.2" y="105.782" fill-rule="evenodd" clip-rule="evenodd" fill="#C7C7C7" width="179.653" height="1.136"/>
			</g>
			<g>
				<rect x="162.2" y="119.416" fill-rule="evenodd" clip-rule="evenodd" fill="#C7C7C7" width="179.653" height="1.139"/>
			</g>
			<g>
				<rect x="162.2" y="133.059" fill-rule="evenodd" clip-rule="evenodd" fill="#C7C7C7" width="179.653" height="1.136"/>
			</g>
			<g>
				<rect x="162.2" y="146.693" fill-rule="evenodd" clip-rule="evenodd" fill="#C7C7C7" width="179.653" height="1.137"/>
			</g>
			<g>
				<rect x="162.2" y="160.335" fill-rule="evenodd" clip-rule="evenodd" fill="#C7C7C7" width="179.653" height="1.136"/>
			</g>
			<g>
				<rect x="162.2" y="173.971" fill-rule="evenodd" clip-rule="evenodd" fill="#C7C7C7" width="179.653" height="1.136"/>
			</g>
			<g>
				<rect x="162.2" y="187.613" fill-rule="evenodd" clip-rule="evenodd" fill="#C7C7C7" width="179.653" height="1.136"/>
			</g>
			<g>
				<rect x="162.2" y="201.249" fill-rule="evenodd" clip-rule="evenodd" fill="#C7C7C7" width="179.653" height="1.136"/>
			</g>
			<g>
				<rect x="162.2" y="214.891" fill-rule="evenodd" clip-rule="evenodd" fill="#C7C7C7" width="179.653" height="1.135"/>
			</g>
			<g>
				<rect x="162.2" y="228.526" fill-rule="evenodd" clip-rule="evenodd" fill="#C7C7C7" width="179.653" height="1.139"/>
			</g>
			<g>
				<rect x="162.2" y="242.168" fill-rule="evenodd" clip-rule="evenodd" fill="#C7C7C7" width="179.653" height="1.136"/>
			</g>
			<g>
				<rect x="162.2" y="51.251" fill-rule="evenodd" clip-rule="evenodd" fill="#C7C7C7" width="179.653" height="1.139"/>
			</g>
		</g>
		<g>
			<polyline fill="#C7C7C7" points="320.518,270.47 320.518,249.276 341.774,249.276 			"/>
		</g>
	</g>
	<g>
		<g>
			<g>
				<g>
					<g>
						<path fill="#888888" d="M226.826,97.719c6.771,0,6.771-10.5,0-10.5S220.055,97.719,226.826,97.719L226.826,97.719z"/>
					</g>
				</g>
				<g>
					<g>
						<path fill="#FFFFFF" d="M228.802,91.805c1.692,0,1.692-2.625,0-2.625C227.109,89.181,227.109,91.805,228.802,91.805
							L228.802,91.805z"/>
					</g>
				</g>
			</g>
			<g>
				<g>
					<g>
						<path fill="#888888" d="M275.241,97.719c6.771,0,6.771-10.5,0-10.5C268.47,87.219,268.47,97.719,275.241,97.719
							L275.241,97.719z"/>
					</g>
				</g>
				<g>
					<g>
						<path fill="#FFFFFF" d="M277.218,91.805c1.691,0,1.691-2.625,0-2.625C275.524,89.181,275.524,91.805,277.218,91.805
							L277.218,91.805z"/>
					</g>
				</g>
			</g>
		</g>
		<g>
			<g>
				<g>
					<path fill="#FFB8D4" d="M207.064,118.397c9.342,0,9.342-14.488,0-14.488C197.722,103.91,197.722,118.397,207.064,118.397
						L207.064,118.397z"/>
				</g>
			</g>
			<g>
				<g>
					<path fill="#FFB8D4" d="M296.979,118.397c9.342,0,9.342-14.488,0-14.488C287.637,103.91,287.637,118.397,296.979,118.397
						L296.979,118.397z"/>
				</g>
			</g>
		</g>
		<g>
			<path fill="#888888" d="M266.249,119.738c-0.547,0-0.989-0.443-0.989-0.99c0-5.992-5.939-10.866-13.239-10.866
				c-7.299,0-13.237,4.875-13.237,10.866c0,0.546-0.444,0.99-0.99,0.99s-0.99-0.443-0.99-0.99c0-7.083,6.826-12.846,15.217-12.846
				c8.392,0,15.218,5.763,15.218,12.846C267.238,119.295,266.796,119.738,266.249,119.738z"/>
		</g>
	</g>
	<g>
		<g>
			<g>
				<path fill="#C7C7C7" d="M288.406,50.026c0,0,0.136,0.177,0.326,0.495c0.101,0.152,0.186,0.375,0.279,0.629
					c0.106,0.263,0.171,0.544,0.245,0.869c0.07,0.322,0.094,0.672,0.124,1.05c-0.006,0.37,0.012,0.774-0.054,1.176
					c-0.04,0.408-0.125,0.824-0.241,1.239c-0.108,0.418-0.274,0.827-0.447,1.232c-0.194,0.396-0.393,0.793-0.652,1.15
					c-0.225,0.374-0.54,0.691-0.813,1.004c-0.322,0.284-0.602,0.573-0.944,0.775c-0.165,0.103-0.325,0.202-0.479,0.298
					c-0.162,0.084-0.331,0.151-0.485,0.217c-0.16,0.059-0.303,0.128-0.451,0.166c-0.152,0.031-0.295,0.061-0.431,0.088
					c-0.261,0.064-0.496,0.079-0.692,0.068c-0.389-0.006-0.598-0.042-0.598-0.042s0.168-0.161,0.442-0.386
					c0.142-0.101,0.292-0.258,0.46-0.425c0.17-0.161,0.351-0.346,0.523-0.566c0.188-0.197,0.363-0.435,0.542-0.684
					c0.196-0.226,0.342-0.53,0.536-0.786c0.154-0.299,0.347-0.57,0.497-0.888c0.167-0.303,0.318-0.622,0.466-0.944
					c0.149-0.322,0.291-0.652,0.423-0.979c0.061-0.167,0.127-0.33,0.197-0.491c0.058-0.165,0.116-0.328,0.174-0.489
					c0.237-0.644,0.426-1.266,0.584-1.817c0.064-0.272,0.165-0.541,0.207-0.76c0.04-0.228,0.125-0.432,0.143-0.62
					C288.347,50.24,288.406,50.026,288.406,50.026z"/>
			</g>
			<g>
				<path fill="#C7C7C7" d="M292.234,48.962c0,0,0.086,0.217,0.193,0.593c0.031,0.2,0.173,0.39,0.261,0.598
					c0.08,0.201,0.256,0.43,0.4,0.671c0.131,0.244,0.368,0.477,0.539,0.733c0.237,0.235,0.423,0.504,0.689,0.742
					c0.13,0.121,0.252,0.248,0.376,0.377c0.141,0.117,0.281,0.235,0.415,0.361c0.269,0.25,0.578,0.471,0.867,0.708
					c0.308,0.217,0.603,0.454,0.92,0.649c0.307,0.215,0.621,0.396,0.927,0.583c0.307,0.181,0.613,0.334,0.905,0.492
					c0.298,0.119,0.582,0.298,0.854,0.379c0.272,0.101,0.53,0.225,0.766,0.274c0.235,0.055,0.457,0.154,0.636,0.166
					c0.363,0.06,0.604,0.115,0.604,0.115s-0.174,0.136-0.538,0.335c-0.18,0.114-0.412,0.181-0.69,0.259
					c-0.281,0.097-0.599,0.135-0.956,0.164c-0.363,0.048-0.734-0.009-1.146-0.036c-0.396-0.065-0.822-0.146-1.239-0.286
					c-0.414-0.145-0.847-0.301-1.245-0.531c-0.42-0.196-0.793-0.48-1.182-0.743c-0.355-0.305-0.729-0.59-1.031-0.946
					c-0.322-0.333-0.604-0.698-0.838-1.08c-0.259-0.358-0.418-0.783-0.591-1.146c-0.116-0.408-0.259-0.763-0.286-1.135
					c-0.04-0.365-0.071-0.684-0.02-1.001c0.031-0.303,0.062-0.556,0.15-0.727C292.122,49.167,292.234,48.962,292.234,48.962z"/>
			</g>
			<g>
				<path fill="#C7C7C7" d="M284.156,62.992c0,0,0.179-0.12,0.494-0.283c0.149-0.091,0.373-0.149,0.63-0.216
					c0.271-0.08,0.55-0.109,0.872-0.138c0.636-0.047,1.38,0.025,2.134,0.233c0.378,0.102,0.763,0.229,1.132,0.401
					c0.384,0.148,0.732,0.37,1.096,0.566c0.339,0.238,0.694,0.449,0.997,0.726c0.318,0.252,0.603,0.537,0.863,0.827
					c0.526,0.574,0.924,1.201,1.178,1.781c0.121,0.298,0.229,0.56,0.279,0.821c0.06,0.253,0.11,0.465,0.111,0.657
					c0.017,0.375-0.008,0.578-0.008,0.578s-0.169-0.148-0.406-0.388c-0.107-0.125-0.295-0.245-0.451-0.401
					c-0.158-0.155-0.384-0.299-0.585-0.472c-0.204-0.171-0.459-0.333-0.688-0.521c-0.262-0.167-0.502-0.367-0.782-0.544
					c-0.14-0.088-0.273-0.187-0.409-0.284c-0.143-0.089-0.289-0.179-0.429-0.277c-0.28-0.195-0.584-0.367-0.873-0.559
					c-0.299-0.173-0.588-0.369-0.888-0.532c-0.293-0.176-0.587-0.338-0.872-0.497c-0.283-0.167-0.566-0.293-0.833-0.447
					c-0.271-0.115-0.528-0.272-0.774-0.368c-0.243-0.099-0.479-0.23-0.675-0.294c-0.205-0.063-0.387-0.176-0.567-0.205
					C284.357,63.069,284.156,62.992,284.156,62.992z"/>
			</g>
			<g>
				<path fill="#C7C7C7" d="M302.013,59.803c0,0-0.125,0.145-0.355,0.353c-0.116,0.104-0.218,0.256-0.346,0.383
					c-0.121,0.146-0.258,0.312-0.406,0.491c-0.138,0.195-0.3,0.367-0.448,0.583c-0.157,0.201-0.314,0.417-0.476,0.641
					c-0.321,0.444-0.66,0.914-0.974,1.399c-0.175,0.232-0.312,0.485-0.479,0.718c-0.152,0.243-0.303,0.481-0.447,0.712
					c-0.287,0.467-0.562,0.916-0.786,1.323c-0.234,0.404-0.441,0.77-0.57,1.039c-0.135,0.269-0.238,0.437-0.238,0.437
					s-0.096-0.157-0.216-0.456c-0.064-0.15-0.133-0.336-0.167-0.552c-0.046-0.217-0.104-0.47-0.107-0.741
					c-0.077-1.095,0.29-2.57,1.115-3.758c0.198-0.3,0.43-0.58,0.666-0.843c0.249-0.255,0.494-0.503,0.771-0.706
					c0.264-0.213,0.544-0.392,0.82-0.541c0.269-0.158,0.562-0.259,0.812-0.359c0.526-0.161,1.025-0.224,1.338-0.202
					C301.828,59.758,302.013,59.803,302.013,59.803z"/>
			</g>
		</g>
		<g>
			<g>
				<path fill="#00D5F5" d="M310.097,51.917c1.121,6.735-14.229,38.267,2.806,38.165C328.253,89.993,318.188,61.911,310.097,51.917"
					/>
			</g>
			<g>
				<path fill="#FFFFFF" d="M316.03,73.753c0,0,0.167,0.162,0.415,0.463c0.122,0.151,0.277,0.332,0.429,0.549
					c0.17,0.204,0.306,0.483,0.455,0.792c0.147,0.309,0.301,0.655,0.449,1.03c0.112,0.367,0.216,0.756,0.312,1.165
					c0.11,0.408,0.182,0.835,0.208,1.271c0.041,0.436,0.075,0.88,0.082,1.325c-0.023,0.444-0.044,0.888-0.089,1.323
					c-0.02,0.436-0.128,0.86-0.221,1.267c-0.1,0.406-0.184,0.798-0.321,1.159c-0.144,0.361-0.289,0.696-0.433,1
					c-0.135,0.305-0.285,0.574-0.455,0.8c-0.152,0.231-0.304,0.42-0.425,0.576c-0.245,0.309-0.406,0.467-0.406,0.467
					s-0.021-0.24-0.021-0.626c0.003-0.193-0.001-0.426,0.019-0.68c0.023-0.251,0.01-0.545,0.004-0.86
					c0-0.313,0.006-0.646,0.024-0.991c0.017-0.347-0.013-0.721,0.003-1.096c0.004-0.376,0.034-0.76,0.018-1.156
					c-0.009-0.394,0.006-0.792,0.018-1.191c0.005-0.398-0.021-0.796-0.009-1.189c0-0.196,0.008-0.392,0.019-0.586
					c-0.011-0.191-0.021-0.381-0.021-0.569c-0.01-0.374-0.001-0.743,0.009-1.094c-0.019-0.33-0.025-0.65-0.023-0.957
					c-0.005-0.305,0.031-0.6-0.008-0.868c-0.028-0.264-0.031-0.503-0.037-0.697C316.012,73.986,316.03,73.753,316.03,73.753z"/>
			</g>
		</g>
	</g>
	<g>
		<g>
			<g>
				<g>
					<path fill="#FD5F92" d="M421.488,334.179c5.375,0.44,9.375,5.156,8.935,10.531l-0.382,4.664
						c-0.439,5.373-5.154,9.374-10.527,8.933l-16.831-1.377c-5.373-0.44-9.373-5.153-8.936-10.529l0.385-4.663
						c0.44-5.375,5.152-9.375,10.529-8.936L421.488,334.179z"/>
				</g>
				<g>
					<path fill="#D01B65" d="M423.347,356.886c0,0-0.079-0.319-0.192-0.883c-0.056-0.282-0.123-0.624-0.199-1.017
						c-0.082-0.392-0.168-0.835-0.216-1.327c-0.055-0.492-0.116-1.026-0.181-1.59c-0.072-0.567-0.075-1.163-0.103-1.782
						c-0.013-0.618-0.065-1.259-0.021-1.908c0.025-0.65,0.052-1.311,0.077-1.972c0.076-0.656,0.15-1.313,0.226-1.96
						c0.052-0.649,0.206-1.274,0.316-1.884c0.125-0.606,0.216-1.198,0.383-1.743c0.149-0.548,0.3-1.063,0.441-1.536
						c0.125-0.478,0.289-0.902,0.44-1.275c0.146-0.374,0.272-0.7,0.377-0.968c0.213-0.535,0.346-0.835,0.346-0.835
						s-0.056,0.327-0.172,0.888c-0.11,0.564-0.317,1.354-0.472,2.32c-0.082,0.482-0.171,1.003-0.278,1.55
						c-0.119,0.545-0.153,1.137-0.255,1.735c-0.085,0.602-0.182,1.221-0.232,1.857c-0.063,0.634-0.125,1.278-0.189,1.922
						c-0.035,0.646-0.071,1.293-0.106,1.93c-0.05,0.637-0.05,1.265-0.06,1.873c0.004,0.606-0.051,1.199-0.024,1.754
						c0.006,0.559,0.012,1.085,0.018,1.572c-0.004,0.977,0.053,1.802,0.063,2.375C423.35,356.557,423.347,356.886,423.347,356.886z"
						/>
				</g>
			</g>
			<g>
				<path fill="#FEAF29" d="M262.243,322.511c-1.054,0.925-1.054,0.925-0.062,2.396c0.554,0.825,2.263,3.312,2.263,3.312
					c0.165,0.259,0.004,0.712-0.286,0.813l-7.619,3.351l7.447,3.743c0.382,0.212,0.33,0.907-0.088,1.052l-10.735,4.082l5.294,5.492
					l155.09,12.701l2.242-27.371l-150.124-12.294C264.526,320.692,263.342,321.547,262.243,322.511z"/>
			</g>
			<g>
				<g>
					<path fill="#F18100" d="M264.341,338.352c0,0,2.346,0.132,6.452,0.36c4.102,0.267,9.969,0.577,16.999,1.074
						c7.029,0.5,15.233,1.026,24.018,1.691c4.392,0.336,8.93,0.682,13.54,1.034c4.609,0.367,9.294,0.741,13.976,1.114
						c4.682,0.394,9.363,0.787,13.972,1.174c4.606,0.402,9.141,0.798,13.528,1.182c8.775,0.771,16.956,1.589,23.974,2.239
						c7.018,0.651,12.855,1.303,16.946,1.707c4.088,0.442,6.425,0.695,6.425,0.695s-2.347-0.131-6.451-0.359
						c-4.104-0.267-9.97-0.574-16.999-1.072c-7.029-0.5-15.235-1.024-24.02-1.692c-4.391-0.336-8.929-0.683-13.539-1.035
						c-4.611-0.367-9.293-0.741-13.978-1.115c-4.681-0.394-9.361-0.787-13.969-1.175c-4.608-0.402-9.142-0.799-13.529-1.182
						c-8.774-0.774-16.957-1.589-23.973-2.239c-7.018-0.654-12.857-1.302-16.948-1.707
						C266.677,338.604,264.341,338.352,264.341,338.352z"/>
				</g>
				<g>
					<path fill="#F18100" d="M265.564,328.655c0,0,2.339,0.13,6.432,0.358c4.091,0.266,9.941,0.574,16.951,1.069
						c7.009,0.499,15.19,1.023,23.949,1.687c4.38,0.334,8.904,0.68,13.502,1.031c4.598,0.366,9.267,0.738,13.937,1.111
						c4.668,0.392,9.337,0.783,13.932,1.169c4.594,0.401,9.114,0.797,13.489,1.179c8.75,0.769,16.908,1.585,23.905,2.233
						c6.996,0.65,12.819,1.3,16.898,1.704c4.076,0.44,6.405,0.693,6.405,0.693s-2.34-0.131-6.432-0.358
						c-4.092-0.265-9.941-0.572-16.951-1.068c-7.011-0.498-15.192-1.021-23.951-1.687c-4.378-0.334-8.902-0.68-13.5-1.031
						c-4.598-0.367-9.267-0.74-13.938-1.112c-4.667-0.393-9.336-0.784-13.931-1.17c-4.593-0.402-9.114-0.798-13.489-1.181
						c-8.75-0.771-16.908-1.584-23.905-2.233c-6.996-0.651-12.819-1.298-16.898-1.702
						C267.894,328.907,265.564,328.655,265.564,328.655z"/>
				</g>
			</g>
			<g>
				<g>
					
						<rect x="389.196" y="335.343" transform="matrix(0.0816 -0.9967 0.9967 0.0816 28.1664 720.5269)" fill="#CDCDCD" width="31.735" height="19.272"/>
				</g>
				<g>
					
						<rect x="385.547" y="343.766" transform="matrix(0.0816 -0.9967 0.9967 0.0816 25.1231 716.6258)" fill="#9A9A9A" width="31.734" height="1.83"/>
				</g>
				<g>
					
						<rect x="392.846" y="344.364" transform="matrix(0.0816 -0.9967 0.9967 0.0816 31.2292 724.4486)" fill="#9A9A9A" width="31.733" height="1.83"/>
				</g>
				<g>
					<g>
						<path fill="#9A9A9A" d="M405.091,346.107c1.452,0,1.452-2.25,0-2.25C403.641,343.857,403.641,346.107,405.091,346.107
							L405.091,346.107z"/>
					</g>
				</g>
				<g>
					<g>
						<path fill="#9A9A9A" d="M405.955,335.564c1.45,0,1.45-2.251,0-2.251C404.503,333.313,404.503,335.564,405.955,335.564
							L405.955,335.564z"/>
					</g>
				</g>
				<g>
					<g>
						<path fill="#9A9A9A" d="M404.229,356.648c1.451,0,1.451-2.25,0-2.25C402.776,354.398,402.776,356.648,404.229,356.648
							L404.229,356.648z"/>
					</g>
				</g>
			</g>
		</g>
		<g>
			<g>
				<g>
					<g>
						<path fill-rule="evenodd" clip-rule="evenodd" fill="#FBDCC2" d="M103.864,347.421c0.396,4.047,0.791,8.09,1.185,12.135
							c0.134,1.361-0.383,1.828-1.728,1.564c-14.141-2.774-28.278-5.552-42.421-8.321c-0.598-0.116-1.079-0.342-1.158-1.018
							c-0.085-0.707,0.327-1.04,0.93-1.287c13.377-5.478,26.75-10.966,40.124-16.448c1.112-0.455,1.752-0.052,1.872,1.177
							C103.069,339.289,103.466,343.355,103.864,347.421z"/>
					</g>
					<g>
						<path fill-rule="evenodd" clip-rule="evenodd" fill="#0F2159" d="M75.236,344.522c-4.855,1.992-9.709,3.982-14.564,5.972
							c-0.603,0.247-1.015,0.58-0.93,1.287c0.079,0.676,0.56,0.901,1.158,1.018c5.099,1,10.196,1.999,15.292,3.001
							C78.03,352.701,77.181,347.596,75.236,344.522z"/>
					</g>
				</g>
				<g>
					<g>
						<path fill="#FEAF29" d="M244.025,342.56c-0.219-0.253-0.113-0.665,0.138-0.853l9.231-5.671l-7.571-2.424
							c-0.397-0.238-0.484-0.741-0.103-1.051l7.057-4.884l-3.949-3.859c-0.242-0.206-0.313-0.609-0.084-0.858
							c1.16-1.259,2.271-2.557,3.394-3.845l-149.81,14.659l2.675,27.332l144.868-14.176L244.025,342.56z"/>
					</g>
					<g>
						<g>
							<path fill="#FEAF29" d="M109.026,351.568c2.432-0.239,4.6,1.595,4.846,4.098l0,0c0.245,2.501-1.528,4.723-3.959,4.961
								l-5.364,0.524c-2.433,0.238-4.603-1.597-4.847-4.098l0,0c-0.245-2.503,1.527-4.723,3.96-4.96L109.026,351.568z"/>
						</g>
						<g>
							<path fill="#FEAF29" d="M108.098,342.102c2.434-0.239,4.618,1.743,4.88,4.429l0,0c0.262,2.683-1.497,5.051-3.93,5.29
								l-5.363,0.523c-2.431,0.239-4.616-1.743-4.879-4.426l0,0c-0.262-2.686,1.497-5.054,3.928-5.291L108.098,342.102z"/>
						</g>
						<g>
							<path fill="#FEAF29" d="M107.237,333.294c2.433-0.238,4.601,1.6,4.847,4.099l0,0c0.244,2.502-1.528,4.722-3.96,4.96
								l-5.364,0.524c-2.433,0.239-4.602-1.597-4.847-4.097l0,0c-0.245-2.502,1.528-4.723,3.96-4.96L107.237,333.294z"/>
						</g>
					</g>
				</g>
				<g>
					<g>
						<path fill="#F18100" d="M102.926,352.42c0,0,2.246-0.281,6.175-0.773c3.933-0.455,9.545-1.174,16.292-1.913
							c6.747-0.736,14.612-1.651,23.05-2.532c4.219-0.437,8.579-0.889,13.009-1.348c4.431-0.443,8.933-0.896,13.435-1.346
							c4.504-0.431,9.008-0.862,13.441-1.286c4.435-0.408,8.799-0.812,13.023-1.201c8.448-0.774,16.342-1.399,23.104-1.985
							c6.762-0.584,12.407-0.964,16.354-1.28c3.95-0.279,6.208-0.438,6.208-0.438s-2.246,0.281-6.175,0.773
							c-3.933,0.455-9.545,1.177-16.292,1.914s-14.612,1.655-23.05,2.532c-4.219,0.438-8.579,0.889-13.009,1.348
							c-4.432,0.443-8.933,0.894-13.435,1.345c-4.504,0.43-9.008,0.861-13.441,1.285c-4.435,0.408-8.799,0.811-13.023,1.199
							c-8.448,0.772-16.342,1.4-23.104,1.986c-6.762,0.583-12.407,0.965-16.354,1.281C105.183,352.26,102.926,352.42,102.926,352.42
							z"/>
					</g>
					<g>
						<path fill="#F18100" d="M101.974,342.701c0,0,2.306-0.287,6.34-0.789c4.038-0.466,9.799-1.199,16.725-1.955
							c6.926-0.755,15.001-1.69,23.663-2.593c4.331-0.448,8.806-0.91,13.354-1.381c4.549-0.456,9.17-0.918,13.792-1.38
							c4.623-0.443,9.246-0.886,13.797-1.321c4.552-0.421,9.033-0.834,13.369-1.234c8.672-0.797,16.775-1.441,23.716-2.045
							c6.941-0.602,12.735-0.996,16.787-1.323c4.055-0.289,6.372-0.454,6.372-0.454s-2.305,0.287-6.339,0.789
							c-4.038,0.466-9.799,1.202-16.725,1.957c-6.926,0.754-15.001,1.692-23.663,2.592c-4.331,0.448-8.807,0.91-13.354,1.381
							c-4.549,0.454-9.17,0.917-13.792,1.379c-4.623,0.442-9.247,0.885-13.797,1.319c-4.553,0.421-9.033,0.834-13.369,1.233
							c-8.672,0.795-16.775,1.442-23.716,2.046c-6.941,0.6-12.735,0.997-16.787,1.324
							C104.291,342.535,101.974,342.701,101.974,342.701z"/>
					</g>
				</g>
			</g>
			<g>
				<g>
					<g>
						<path fill="#634E42" d="M96.049,355.229c-3.96-3.853-4.932-9.361-1.425-13.879c0.385-0.497-0.309-1.201-0.699-0.698
							c-3.827,4.931-2.961,11.007,1.425,15.275C95.807,356.372,96.506,355.674,96.049,355.229L96.049,355.229z"/>
					</g>
				</g>
				<g>
					<g>
						<g>
							<path fill="#634E42" d="M87.049,353.859c1.38,0,1.38-2.141,0-2.141S85.669,353.859,87.049,353.859L87.049,353.859z"/>
						</g>
					</g>
					<g>
						<g>
							<path fill="#634E42" d="M86.326,346.484c1.38,0,1.38-2.141,0-2.141C84.946,344.344,84.946,346.484,86.326,346.484
								L86.326,346.484z"/>
						</g>
					</g>
				</g>
			</g>
		</g>
	</g>
	<g>
		<g>
			<g>
				<path fill="#FEAF29" d="M233.199,287.813c0,0,0.905,1.285,2.054,3.308c0.582,1.007,1.228,2.198,1.885,3.49
					c0.321,0.649,0.676,1.31,0.995,2c0.325,0.688,0.654,1.386,0.984,2.084c0.312,0.707,0.624,1.413,0.93,2.108
					c0.315,0.692,0.58,1.395,0.861,2.062c0.546,1.343,1.023,2.61,1.402,3.712c0.775,2.192,1.151,3.719,1.152,3.719
					s-0.906-1.285-2.055-3.308c-0.583-1.008-1.229-2.198-1.885-3.49c-0.321-0.649-0.678-1.309-0.994-2.001
					c-0.324-0.687-0.654-1.386-0.983-2.084c-0.312-0.707-0.624-1.413-0.93-2.109c-0.313-0.692-0.579-1.394-0.859-2.063
					c-0.545-1.342-1.023-2.609-1.403-3.71C233.578,289.337,233.2,287.813,233.199,287.813z"/>
			</g>
			<g>
				<path fill="#FEAF29" d="M258.009,291.826c0,0,0.289,1.355,0.494,3.388c0.112,1.017,0.204,2.202,0.266,3.473
					c0.022,0.635,0.071,1.292,0.074,1.958c0.011,0.667,0.021,1.345,0.031,2.022c-0.011,0.677-0.021,1.354-0.03,2.021
					c0,0.667-0.052,1.323-0.072,1.959c-0.062,1.271-0.153,2.455-0.266,3.472c-0.205,2.032-0.497,3.388-0.497,3.388
					s-0.29-1.355-0.496-3.388c-0.111-1.017-0.205-2.201-0.265-3.472c-0.022-0.636-0.073-1.292-0.073-1.959
					c-0.011-0.667-0.02-1.345-0.03-2.021c0.011-0.678,0.021-1.355,0.03-2.022c0.005-0.666,0.052-1.323,0.074-1.958
					c0.063-1.271,0.155-2.456,0.266-3.473C257.72,293.182,258.009,291.826,258.009,291.826z"/>
			</g>
			<g>
				<path fill="#FEAF29" d="M281.398,287.457c0,0-0.3,1.606-0.961,3.934c-0.321,1.168-0.734,2.516-1.209,3.947
					c-0.246,0.713-0.476,1.458-0.752,2.2c-0.271,0.743-0.547,1.499-0.821,2.254c-0.293,0.748-0.588,1.497-0.877,2.233
					c-0.28,0.74-0.604,1.45-0.891,2.147c-0.59,1.388-1.174,2.671-1.705,3.76c-1.046,2.183-1.887,3.583-1.887,3.583
					s0.298-1.606,0.957-3.935c0.323-1.168,0.734-2.517,1.211-3.947c0.246-0.713,0.474-1.459,0.754-2.199
					c0.271-0.744,0.545-1.499,0.82-2.254c0.295-0.748,0.588-1.497,0.877-2.233c0.283-0.738,0.604-1.449,0.893-2.146
					c0.591-1.389,1.175-2.671,1.705-3.76C280.559,288.858,281.398,287.457,281.398,287.457z"/>
			</g>
		</g>
		<g>
			<g>
				<path fill="#FEAF29" d="M229.539,377.843c0,0,0.378-1.525,1.154-3.718c0.379-1.101,0.857-2.368,1.402-3.712
					c0.28-0.668,0.546-1.368,0.859-2.062c0.307-0.695,0.619-1.402,0.93-2.109c0.33-0.698,0.659-1.397,0.983-2.085
					c0.316-0.691,0.673-1.351,0.994-2c0.656-1.292,1.302-2.483,1.885-3.49c1.149-2.022,2.055-3.308,2.055-3.308
					c0,0-0.377,1.526-1.152,3.72c-0.379,1.1-0.856,2.368-1.402,3.711c-0.281,0.668-0.545,1.369-0.86,2.061
					c-0.308,0.696-0.619,1.402-0.931,2.109c-0.33,0.698-0.66,1.396-0.984,2.084c-0.319,0.69-0.673,1.351-0.995,2
					c-0.657,1.292-1.303,2.483-1.885,3.491C230.443,376.558,229.538,377.843,229.539,377.843z"/>
			</g>
			<g>
				<path fill="#FEAF29" d="M254.347,373.828c0,0-0.289-1.355-0.494-3.387c-0.112-1.017-0.204-2.202-0.266-3.473
					c-0.022-0.636-0.071-1.292-0.074-1.959c-0.011-0.667-0.021-1.345-0.031-2.021c0.011-0.678,0.021-1.355,0.029-2.022
					c0-0.667,0.053-1.323,0.073-1.959c0.062-1.271,0.153-2.456,0.266-3.473c0.205-2.031,0.497-3.387,0.497-3.387
					s0.29,1.355,0.496,3.387c0.111,1.017,0.205,2.202,0.265,3.473c0.022,0.636,0.073,1.292,0.073,1.959
					c0.011,0.667,0.02,1.345,0.029,2.022c-0.01,0.677-0.021,1.354-0.029,2.021c-0.005,0.667-0.052,1.323-0.074,1.959
					c-0.063,1.271-0.155,2.456-0.266,3.473C254.636,372.473,254.347,373.828,254.347,373.828z"/>
			</g>
			<g>
				<path fill="#FEAF29" d="M277.736,378.198c0,0-0.839-1.401-1.885-3.584c-0.531-1.089-1.115-2.372-1.706-3.76
					c-0.288-0.697-0.608-1.408-0.893-2.147c-0.289-0.736-0.582-1.484-0.876-2.232c-0.275-0.756-0.551-1.511-0.821-2.255
					c-0.28-0.739-0.508-1.485-0.754-2.198c-0.477-1.432-0.888-2.78-1.211-3.947c-0.659-2.328-0.957-3.935-0.957-3.935
					s0.841,1.4,1.887,3.583c0.531,1.089,1.115,2.371,1.705,3.76c0.287,0.696,0.61,1.407,0.892,2.147
					c0.289,0.736,0.583,1.484,0.876,2.233c0.275,0.755,0.55,1.511,0.82,2.254c0.277,0.741,0.507,1.486,0.753,2.199
					c0.477,1.433,0.888,2.78,1.21,3.947C277.438,376.592,277.736,378.198,277.736,378.198z"/>
			</g>
		</g>
	</g>
	<g>
		<path fill="#4CD4DF" d="M207.702,215.539v-17.313h-29.541v-5.673l28.367-40.594h9.292v39.518h8.901v6.75h-8.901v17.313H207.702z
			 M207.702,191.476V170.25c0-3.326,0.098-6.651,0.293-9.977h-0.293c-1.957,3.717-3.521,6.456-5.282,9.39l-15.553,21.618v0.195
			H207.702z"/>
		<path fill="#4CD4DF" d="M273.531,183.064c0,21.618-8.021,33.551-22.105,33.551c-12.424,0-20.836-11.641-21.031-32.671
			c0-21.324,9.194-33.062,22.106-33.062C265.902,150.882,273.531,162.816,273.531,183.064z M239.002,184.042
			c0,16.531,5.087,25.921,12.913,25.921c8.803,0,13.009-10.271,13.009-26.509c0-15.65-4.01-25.921-12.912-25.921
			C244.479,157.534,239.002,166.729,239.002,184.042z"/>
		<path fill="#4CD4DF" d="M308.061,215.539v-17.313H278.52v-5.673l28.367-40.594h9.292v39.518h8.901v6.75h-8.901v17.313H308.061z
			 M308.061,191.476V170.25c0-3.326,0.097-6.651,0.293-9.977h-0.293c-1.957,3.717-3.521,6.456-5.282,9.39l-15.554,21.618v0.195
			H308.061z"/>
	</g>
	<g>
		<path fill="#007086" d="M203.637,216.35v-17.313h-29.541v-5.673l28.367-40.594h9.293v39.518h8.901v6.75h-8.901v17.313H203.637z
			 M203.637,192.287v-21.226c0-3.326,0.098-6.652,0.293-9.977h-0.293c-1.957,3.717-3.521,6.456-5.282,9.39l-15.552,21.618v0.195
			H203.637z"/>
		<path fill="#007086" d="M269.468,183.875c0,21.617-8.021,33.551-22.107,33.551c-12.423,0-20.835-11.64-21.031-32.67
			c0-21.324,9.194-33.062,22.106-33.062C261.838,151.693,269.468,163.627,269.468,183.875z M234.938,184.854
			c0,16.53,5.086,25.921,12.912,25.921c8.803,0,13.009-10.271,13.009-26.508c0-15.65-4.01-25.921-12.912-25.921
			C240.416,158.345,234.938,167.54,234.938,184.854z"/>
		<path fill="#007086" d="M303.996,216.35v-17.313h-29.541v-5.673l28.367-40.594h9.292v39.518h8.901v6.75h-8.901v17.313H303.996z
			 M303.996,192.287v-21.226c0-3.326,0.098-6.652,0.293-9.977h-0.293c-1.956,3.717-3.521,6.456-5.282,9.39l-15.554,21.618v0.195
			H303.996z"/>
	</g>
	<g>
		<path fill="#00B2A7" d="M413.453,269.707c0,5.61-4.367,10.159-9.758,10.159H106.166c-5.39,0-9.758-4.549-9.758-10.159v-8.538
			c0-5.609,4.368-10.163,9.758-10.163h297.529c5.391,0,9.758,4.554,9.758,10.163V269.707z"/>
	</g>
	<g>
		<path fill="#FFFFFF" d="M138.312,266.545l3.075-0.299c0.185,1.032,0.561,1.79,1.127,2.274s1.33,0.727,2.291,0.727
			c1.018,0,1.785-0.216,2.301-0.646c0.516-0.43,0.774-0.935,0.774-1.511c0-0.37-0.109-0.685-0.326-0.945
			c-0.217-0.26-0.596-0.485-1.137-0.678c-0.371-0.128-1.214-0.355-2.531-0.684c-1.694-0.42-2.883-0.936-3.567-1.549
			c-0.961-0.861-1.441-1.911-1.441-3.15c0-0.797,0.226-1.543,0.678-2.237s1.104-1.223,1.955-1.585
			c0.851-0.363,1.877-0.545,3.081-0.545c1.965,0,3.444,0.431,4.437,1.292s1.515,2.012,1.564,3.449l-3.161,0.139
			c-0.135-0.804-0.425-1.383-0.87-1.735s-1.112-0.528-2.002-0.528c-0.918,0-1.637,0.188-2.157,0.566
			c-0.334,0.241-0.502,0.565-0.502,0.972c0,0.37,0.156,0.687,0.47,0.95c0.399,0.335,1.367,0.684,2.905,1.047
			c1.538,0.362,2.675,0.738,3.412,1.126c0.737,0.389,1.314,0.919,1.73,1.592c0.417,0.672,0.625,1.503,0.625,2.493
			c0,0.897-0.25,1.737-0.748,2.521c-0.498,0.783-1.203,1.365-2.114,1.746s-2.047,0.571-3.407,0.571c-1.979,0-3.499-0.457-4.56-1.372
			C139.151,269.63,138.518,268.297,138.312,266.545z"/>
		<path fill="#FFFFFF" d="M152.984,265.809c0-0.997,0.246-1.961,0.737-2.895c0.491-0.933,1.187-1.645,2.088-2.136
			c0.9-0.491,1.906-0.737,3.017-0.737c1.716,0,3.122,0.558,4.218,1.672s1.645,2.522,1.645,4.224c0,1.716-0.554,3.138-1.66,4.267
			c-1.107,1.129-2.501,1.692-4.181,1.692c-1.04,0-2.031-0.234-2.974-0.705c-0.943-0.47-1.661-1.158-2.152-2.066
			C153.23,268.217,152.984,267.111,152.984,265.809z M156.06,265.969c0,1.125,0.267,1.986,0.801,2.584
			c0.534,0.598,1.192,0.897,1.976,0.897s1.44-0.3,1.97-0.897s0.796-1.467,0.796-2.605c0-1.11-0.266-1.965-0.796-2.563
			c-0.53-0.598-1.187-0.896-1.97-0.896s-1.441,0.299-1.976,0.896C156.327,263.982,156.06,264.844,156.06,265.969z"/>
		<path fill="#FFFFFF" d="M169.911,271.639h-3v-11.341h2.787v1.612c0.477-0.762,0.906-1.264,1.287-1.506
			c0.38-0.241,0.813-0.363,1.297-0.363c0.684,0,1.342,0.189,1.976,0.566l-0.929,2.616c-0.506-0.327-0.976-0.491-1.41-0.491
			c-0.42,0-0.776,0.116-1.068,0.347c-0.292,0.231-0.521,0.65-0.689,1.256c-0.167,0.604-0.251,1.872-0.251,3.802V271.639z"/>
		<path fill="#FFFFFF" d="M178.422,271.639h-3.001v-11.341h2.787v1.612c0.477-0.762,0.906-1.264,1.287-1.506
			c0.38-0.241,0.813-0.363,1.297-0.363c0.684,0,1.342,0.189,1.976,0.566l-0.929,2.616c-0.506-0.327-0.976-0.491-1.41-0.491
			c-0.42,0-0.776,0.116-1.068,0.347c-0.292,0.231-0.521,0.65-0.689,1.256c-0.167,0.604-0.25,1.872-0.25,3.802V271.639z"/>
		<path fill="#FFFFFF" d="M182.641,260.298h3.193l2.712,8.052l2.648-8.052h3.108l-4.005,10.914l-0.715,1.976
			c-0.264,0.662-0.515,1.167-0.753,1.517c-0.239,0.349-0.513,0.632-0.822,0.849c-0.31,0.218-0.69,0.387-1.143,0.508
			c-0.453,0.121-0.963,0.182-1.533,0.182c-0.577,0-1.143-0.061-1.698-0.182l-0.267-2.35c0.47,0.092,0.893,0.139,1.271,0.139
			c0.698,0,1.214-0.204,1.549-0.614c0.334-0.409,0.591-0.931,0.769-1.564L182.641,260.298z"/>
		<path fill="#FFFFFF" d="M194.526,268.639h3v2.146c0,0.868-0.075,1.553-0.224,2.055c-0.15,0.502-0.433,0.953-0.849,1.352
			s-0.945,0.712-1.586,0.94l-0.587-1.239c0.605-0.199,1.036-0.474,1.292-0.822c0.257-0.35,0.392-0.826,0.406-1.432h-1.452V268.639z"
			/>
		<path fill="#FFFFFF" d="M206.775,271.639v-15.655h5.073c1.922,0,3.175,0.078,3.759,0.235c0.897,0.234,1.648,0.746,2.253,1.532
			c0.605,0.787,0.908,1.804,0.908,3.049c0,0.961-0.175,1.77-0.523,2.424c-0.349,0.655-0.792,1.169-1.33,1.543
			s-1.083,0.622-1.639,0.742c-0.755,0.15-1.848,0.225-3.279,0.225h-2.061v5.905H206.775z M209.936,258.632v4.442h1.729
			c1.246,0,2.079-0.082,2.499-0.246c0.42-0.163,0.75-0.42,0.988-0.769c0.239-0.348,0.358-0.754,0.358-1.217
			c0-0.57-0.167-1.04-0.502-1.41c-0.334-0.37-0.758-0.602-1.271-0.693c-0.377-0.072-1.136-0.107-2.275-0.107H209.936z"/>
		<path fill="#FFFFFF" d="M223.584,263.758l-2.723-0.491c0.306-1.097,0.833-1.908,1.58-2.435c0.748-0.527,1.858-0.791,3.332-0.791
			c1.338,0,2.335,0.159,2.99,0.477c0.655,0.316,1.116,0.718,1.383,1.206c0.267,0.487,0.4,1.383,0.4,2.686l-0.032,3.503
			c0,0.997,0.048,1.732,0.144,2.205c0.096,0.474,0.276,0.981,0.539,1.521h-2.968c-0.079-0.199-0.175-0.494-0.289-0.886
			c-0.05-0.178-0.085-0.296-0.107-0.353c-0.512,0.499-1.061,0.872-1.645,1.121c-0.584,0.249-1.207,0.374-1.869,0.374
			c-1.168,0-2.088-0.316-2.761-0.95c-0.673-0.634-1.009-1.436-1.009-2.403c0-0.641,0.153-1.212,0.459-1.714
			c0.306-0.502,0.735-0.887,1.287-1.153s1.347-0.5,2.387-0.699c1.402-0.264,2.375-0.509,2.916-0.737v-0.299
			c0-0.576-0.143-0.988-0.427-1.233s-0.822-0.368-1.612-0.368c-0.534,0-0.951,0.104-1.25,0.314
			C224.011,262.862,223.769,263.231,223.584,263.758z M227.599,266.192c-0.384,0.129-0.993,0.282-1.826,0.46
			s-1.377,0.353-1.634,0.522c-0.392,0.278-0.587,0.63-0.587,1.058c0,0.42,0.156,0.783,0.47,1.09
			c0.313,0.306,0.712,0.459,1.196,0.459c0.541,0,1.057-0.178,1.548-0.534c0.363-0.271,0.602-0.602,0.715-0.993
			c0.079-0.256,0.118-0.744,0.118-1.463V266.192z"/>
		<path fill="#FFFFFF" d="M233.227,272.387l3.428,0.416c0.057,0.399,0.188,0.674,0.395,0.822c0.285,0.214,0.733,0.321,1.346,0.321
			c0.783,0,1.371-0.118,1.762-0.354c0.263-0.156,0.462-0.408,0.598-0.758c0.092-0.249,0.139-0.708,0.139-1.378v-1.655
			c-0.897,1.226-2.029,1.837-3.396,1.837c-1.524,0-2.73-0.644-3.621-1.933c-0.697-1.018-1.046-2.285-1.046-3.802
			c0-1.9,0.458-3.353,1.373-4.357c0.915-1.004,2.052-1.506,3.412-1.506c1.403,0,2.56,0.616,3.471,1.848v-1.591h2.808v10.178
			c0,1.338-0.11,2.339-0.331,3.001c-0.221,0.662-0.53,1.182-0.929,1.559s-0.931,0.673-1.597,0.887
			c-0.666,0.214-1.507,0.32-2.526,0.32c-1.922,0-3.285-0.329-4.09-0.988c-0.805-0.658-1.207-1.493-1.207-2.505
			C233.216,272.649,233.22,272.529,233.227,272.387z M235.907,265.733c0,1.203,0.233,2.084,0.7,2.644
			c0.466,0.559,1.041,0.838,1.725,0.838c0.733,0,1.353-0.286,1.858-0.859c0.505-0.573,0.758-1.423,0.758-2.547
			c0-1.175-0.242-2.047-0.726-2.617c-0.484-0.569-1.096-0.854-1.837-0.854c-0.719,0-1.312,0.279-1.778,0.838
			S235.907,264.587,235.907,265.733z"/>
		<path fill="#FFFFFF" d="M253.433,268.03l2.99,0.501c-0.386,1.097-0.992,1.932-1.821,2.505c-0.83,0.572-1.868,0.859-3.113,0.859
			c-1.972,0-3.432-0.645-4.378-1.934c-0.748-1.032-1.122-2.334-1.122-3.907c0-1.881,0.492-3.352,1.474-4.417
			c0.983-1.064,2.225-1.597,3.728-1.597c1.688,0,3.019,0.558,3.994,1.672s1.441,2.821,1.398,5.12h-7.519
			c0.022,0.891,0.264,1.583,0.728,2.078c0.461,0.494,1.038,0.742,1.729,0.742c0.471,0,0.865-0.129,1.186-0.385
			C253.025,269.012,253.269,268.6,253.433,268.03z M253.604,264.997c-0.022-0.869-0.246-1.529-0.673-1.981
			c-0.428-0.452-0.947-0.678-1.56-0.678c-0.655,0-1.196,0.238-1.624,0.716c-0.427,0.477-0.637,1.124-0.63,1.943H253.604z"/>
		<path fill="#FFFFFF" d="M265.157,271.639v-15.655h3.075l6.409,10.455v-10.455h2.937v15.655h-3.172l-6.313-10.209v10.209H265.157z"
			/>
		<path fill="#FFFFFF" d="M280.205,265.809c0-0.997,0.246-1.961,0.737-2.895c0.49-0.933,1.187-1.645,2.087-2.136
			s1.906-0.737,3.017-0.737c1.716,0,3.122,0.558,4.218,1.672c1.098,1.114,1.646,2.522,1.646,4.224c0,1.716-0.554,3.138-1.66,4.267
			c-1.108,1.129-2.501,1.692-4.182,1.692c-1.04,0-2.03-0.234-2.975-0.705c-0.942-0.47-1.66-1.158-2.15-2.066
			C280.451,268.217,280.205,267.111,280.205,265.809z M283.28,265.969c0,1.125,0.267,1.986,0.802,2.584
			c0.533,0.598,1.191,0.897,1.975,0.897s1.44-0.3,1.971-0.897c0.529-0.598,0.795-1.467,0.795-2.605c0-1.11-0.266-1.965-0.795-2.563
			c-0.53-0.598-1.188-0.896-1.971-0.896s-1.441,0.299-1.975,0.896C283.547,263.982,283.28,264.844,283.28,265.969z"/>
		<path fill="#FFFFFF" d="M299.459,260.298v2.393h-2.05v4.57c0,0.926,0.02,1.465,0.059,1.618c0.038,0.152,0.128,0.279,0.267,0.379
			c0.14,0.1,0.308,0.149,0.508,0.149c0.276,0,0.679-0.096,1.206-0.289l0.256,2.329c-0.696,0.299-1.487,0.448-2.37,0.448
			c-0.541,0-1.028-0.091-1.463-0.272s-0.752-0.417-0.956-0.705c-0.203-0.288-0.343-0.678-0.422-1.169
			c-0.063-0.349-0.095-1.054-0.095-2.114v-4.944h-1.378v-2.393h1.378v-2.253l3.011-1.751v4.004H299.459z"/>
		<path fill="#FFFFFF" d="M307.662,271.639v-15.655h10.731v2.648h-7.571v3.706h6.535v2.647h-6.535v6.653H307.662z"/>
		<path fill="#FFFFFF" d="M320.283,265.809c0-0.997,0.246-1.961,0.737-2.895c0.491-0.933,1.188-1.645,2.088-2.136
			c0.901-0.491,1.906-0.737,3.018-0.737c1.716,0,3.121,0.558,4.218,1.672c1.096,1.114,1.645,2.522,1.645,4.224
			c0,1.716-0.553,3.138-1.661,4.267c-1.106,1.129-2.5,1.692-4.181,1.692c-1.039,0-2.031-0.234-2.974-0.705
			c-0.944-0.47-1.661-1.158-2.152-2.066C320.529,268.217,320.283,267.111,320.283,265.809z M323.358,265.969
			c0,1.125,0.269,1.986,0.802,2.584c0.534,0.598,1.193,0.897,1.977,0.897s1.439-0.3,1.97-0.897s0.796-1.467,0.796-2.605
			c0-1.11-0.266-1.965-0.796-2.563c-0.53-0.598-1.187-0.896-1.97-0.896s-1.442,0.299-1.977,0.896
			C323.627,263.982,323.358,264.844,323.358,265.969z"/>
		<path fill="#FFFFFF" d="M341.803,271.639v-1.697c-0.413,0.604-0.957,1.082-1.628,1.431c-0.674,0.349-1.384,0.523-2.132,0.523
			c-0.762,0-1.444-0.168-2.051-0.502c-0.604-0.335-1.042-0.805-1.313-1.41c-0.27-0.604-0.405-1.441-0.405-2.509v-7.177h3.001v5.211
			c0,1.596,0.056,2.572,0.166,2.932c0.11,0.36,0.311,0.645,0.603,0.854s0.663,0.315,1.111,0.315c0.513,0,0.971-0.142,1.378-0.422
			c0.404-0.281,0.684-0.63,0.832-1.047c0.15-0.416,0.225-1.437,0.225-3.06v-4.784h3.001v11.341H341.803z"/>
		<path fill="#FFFFFF" d="M358.014,271.639h-3.001v-5.788c0-1.224-0.064-2.016-0.192-2.376c-0.128-0.359-0.337-0.639-0.624-0.838
			c-0.289-0.199-0.636-0.299-1.041-0.299c-0.52,0-0.987,0.143-1.4,0.427c-0.412,0.285-0.695,0.662-0.849,1.133
			c-0.153,0.47-0.229,1.338-0.229,2.605v5.136h-3.001v-11.341h2.788v1.666c0.989-1.281,2.235-1.923,3.736-1.923
			c0.663,0,1.268,0.12,1.815,0.358c0.549,0.238,0.964,0.543,1.245,0.913c0.28,0.37,0.477,0.79,0.587,1.26s0.166,1.144,0.166,2.019
			V271.639z"/>
		<path fill="#FFFFFF" d="M371.459,271.639h-2.788v-1.665c-0.462,0.647-1.009,1.13-1.639,1.446s-1.266,0.476-1.906,0.476
			c-1.303,0-2.419-0.525-3.348-1.575c-0.93-1.05-1.395-2.516-1.395-4.395c0-1.922,0.453-3.383,1.357-4.384
			c0.903-1,2.046-1.501,3.428-1.501c1.267,0,2.364,0.527,3.289,1.581v-5.639h3.001V271.639z M363.449,265.723
			c0,1.21,0.167,2.086,0.502,2.627c0.483,0.784,1.16,1.175,2.028,1.175c0.691,0,1.279-0.294,1.764-0.881
			c0.483-0.587,0.725-1.465,0.725-2.633c0-1.302-0.233-2.24-0.704-2.813s-1.072-0.859-1.805-0.859c-0.712,0-1.308,0.283-1.789,0.849
			C363.688,263.753,363.449,264.598,363.449,265.723z"/>
	</g>
</g>
</svg>
