<?xml version="1.0" encoding="utf-8"?>
<!-- Generator: Adobe Illustrator 16.0.0, SVG Export Plug-In . SVG Version: 6.00 Build 0)  -->
<!DOCTYPE svg PUBLIC "-//W3C//DTD SVG 1.1//EN" "http://www.w3.org/Graphics/SVG/1.1/DTD/svg11.dtd">
<svg version="1.1" id="Capa_1" xmlns="http://www.w3.org/2000/svg" xmlns:xlink="http://www.w3.org/1999/xlink" x="0px" y="0px"
	 width="512px" height="512px" viewBox="0 0 512 512" enable-background="new 0 0 512 512" xml:space="preserve">
<g>
	<path fill="#FFFFFF" d="M256,0C114.846,0,0,114.836,0,256s114.846,256,256,256s256-114.836,256-256S397.154,0,256,0z
		 M379.077,275.692H275.692V384c0,10.87-8.822,19.692-19.692,19.692S236.308,394.87,236.308,384V275.692H132.923
		c-10.87,0-19.692-8.822-19.692-19.692s8.822-19.692,19.692-19.692h103.385v-98.461c0-10.87,8.822-19.692,19.692-19.692
		s19.692,8.822,19.692,19.692v98.461h103.385c10.87,0,19.692,8.822,19.692,19.692S389.947,275.692,379.077,275.692z"/>
</g>
</svg>
