<?xml version="1.0" encoding="utf-8"?>
<!-- Generator: Adobe Illustrator 16.0.0, SVG Export Plug-In . SVG Version: 6.00 Build 0)  -->
<!DOCTYPE svg PUBLIC "-//W3C//DTD SVG 1.1//EN" "http://www.w3.org/Graphics/SVG/1.1/DTD/svg11.dtd">
<svg version="1.1" id="Layer_1" xmlns="http://www.w3.org/2000/svg" xmlns:xlink="http://www.w3.org/1999/xlink" x="0px" y="0px"
	 width="512px" height="512px" viewBox="0 0 512 512" enable-background="new 0 0 512 512" xml:space="preserve">
<circle fill="#29B3A7" cx="243.097" cy="256" r="236.097"/>
<path fill="#37A18E" d="M446.203,136.07L232.888,318.121l-0.851,20.854l9.282,0.536l228.333-150.656
	C464.28,170.295,456.37,152.253,446.203,136.07z"/>
<path fill="#FFFFFF" d="M507.68,97.218l-43.392-43.007c-5.76-5.76-15.36-5.76-21.503,0L257.318,245.82l-80.252-79.101
	c-5.76-5.76-15.36-5.76-21.503,0l-38.398,38.015c-5.761,5.76-5.761,15.36,0,21.12l128.252,127.097
	c3.456,3.458,8.064,4.609,12.671,4.225c4.607,0.385,9.215-0.769,12.672-4.225L507.68,118.72
	C513.439,112.576,513.439,102.977,507.68,97.218z"/>
<path fill="#E0E0E0" d="M272.141,353.393L506.54,116.641c5.697-5.821,5.596-15.42-0.226-21.118l-6.98-6.453L258.837,330.494
	L123.05,201l-5.698,5.821c-5.698,5.821-5.596,15.42,0.226,21.118L247.181,353.66c3.494,3.419,8.113,4.521,12.715,4.088
	C264.125,358.086,268.719,356.887,272.141,353.393z"/>
</svg>
