<?xml version="1.0" encoding="utf-8"?>
<!-- Generator: Adobe Illustrator 16.0.0, SVG Export Plug-In . SVG Version: 6.00 Build 0)  -->
<!DOCTYPE svg PUBLIC "-//W3C//DTD SVG 1.1//EN" "http://www.w3.org/Graphics/SVG/1.1/DTD/svg11.dtd">
<svg version="1.1" id="Layer_1" xmlns="http://www.w3.org/2000/svg" xmlns:xlink="http://www.w3.org/1999/xlink" x="0px" y="0px"
	 width="180px" height="180px" viewBox="0 0 180 180" enable-background="new 0 0 180 180" xml:space="preserve">
<path fill-rule="evenodd" clip-rule="evenodd" d="M43.773,131.479c2.181-1.877,2.042-0.008,2.049,1.33
	c0.035,6.445,0.007,12.895,0.019,19.348c0.019,8.572,4.125,12.705,12.646,12.695c23.797-0.023,47.594-0.061,71.394-0.092
	c2.606-0.525,5.21-0.945,7.887-1.078c4.954-0.246,8.663-4.09,9.018-9.012c0.071-0.998,0.054-2,0.054-3.002
	c0.002-29.771,0.002-59.545,0.002-89.322c0-0.557-0.051-1.117-0.002-1.667c0.253-2.776-1.142-3.413-3.741-3.69
	c-10.408-1.091-20.833-0.507-31.245-0.676c-0.445-0.007-0.89-0.026-1.325-0.123c-0.25-0.284-0.497-0.576-0.745-0.86
	c-0.163-0.41-0.067-0.748,0.28-1.017c1.318-0.803,2.794-0.58,4.221-0.584c9.43-0.042,18.859,0.042,28.29-0.088
	c4.065-0.054,4.295-0.273,4.33-4.376c0.023-2.884-0.017-5.77,0.007-8.653c0.021-2.532-0.559-4.836-2.537-7.032
	c-0.31,4.167-1.532,7.493-6.225,7.865c-3.743-0.894-5.154-2.361-5.724-5.938c-0.194-1.209-0.085-2.444-0.329-3.652
	c-0.248-1.248-1.16-1.52-2.235-1.534c-1.106-0.011-1.969,0.352-2.199,1.577c-0.23,1.211-0.103,2.442-0.199,3.661
	c-0.296,3.755-2.246,5.85-5.479,5.896c-3.387,0.046-5.425-2.097-5.711-6.017c-0.073-0.999-0.033-2.002-0.11-3
	c-0.121-1.519-0.982-2.135-2.438-2.117c-1.343,0.02-2.05,0.694-2.174,2.014c-0.143,1.55-0.202,3.108-0.657,4.618
	c-0.923,3.06-3.272,4.765-6.171,4.461c-2.614-0.273-4.702-2.467-5.091-5.383c-0.16-1.215-0.058-2.446-0.183-3.667
	c-0.157-1.525-1.099-2.067-2.518-2.043c-1.369,0.023-1.995,0.763-2.091,2.076c-0.098,1.33,0,2.676-0.282,3.991
	c-0.668,3.11-2.913,5.093-5.737,5.09c-2.83-0.004-5.079-1.983-5.755-5.08c-0.286-1.313-0.186-2.661-0.313-3.987
	c-0.148-1.526-1.044-2.095-2.48-2.071c-1.369,0.019-2.01,0.746-2.122,2.052c-0.105,1.219-0.021,2.452-0.232,3.664
	c-0.557,3.19-2.729,5.323-5.46,5.379c-3.106,0.065-5.088-1.784-5.681-5.328c-0.219-1.317-0.409-2.637-0.684-3.945
	c-0.319-1.518-1.361-1.893-2.731-1.802c-1.421,0.094-1.839,1.029-1.923,2.261c-0.08,1.112-0.015,2.227-0.129,3.335
	c-0.361,3.478-2.365,5.462-5.532,5.486c-3.017,0.023-4.982-1.777-5.553-5.097c-0.113-0.657-0.025-1.34-0.407-2.263
	c-1.473,0.645-1.958,1.939-2.326,3.268c-1.231,4.479-0.766,9.057-0.706,13.609c0.011,0.795,0.265,1.579,1.196,1.793
	c1.198,0.277,2.212-0.091,2.947-1.075c1.275-1.705,2.022-3.703,3.007-5.57c0.996-1.883,2.06-3.676,3.896-4.904
	c2.636-1.765,5.418-2.059,8.213-0.632c2.855,1.459,4.045,3.999,3.984,7.165c-0.021,1.004-0.06,2.018-0.413,2.962
	c-0.72,1.92,0.217,2.35,1.904,2.331c3.337-0.038,6.675-0.015,10.012-0.008c5.897,0.008,11.795-0.072,17.688,0.047
	c1.681,0.034,3.744-0.262,4.139,2.272c-0.867,1.529-2.356,0.983-3.605,0.991c-10.018,0.038-20.038,0.138-30.051-0.054
	c-2.892-0.054-4.272,0.956-5.516,3.49C58.8,70.72,53.211,81.586,47.598,92.43c-1.209,2.342-1.845,4.656-1.801,7.311
	c0.121,7.012,0.069,14.026,0.012,21.037c-0.01,1.027,0.706,2.654-1.396,2.688c-1.163-2.096-0.497-4.361-0.542-6.543
	c-0.109-5.203-0.035-10.404-0.605-15.803c-0.847,1.715-1.681,3.436-2.545,5.141c-7.766,15.328-15.558,30.641-23.272,45.99
	c-0.833,1.66-2.063,2.811-3.39,3.986c-3.41,3.025-6.779,6.096-10.156,9.158c-0.5,0.453-0.975,0.992-1.72,0.748
	c-0.862-0.281-0.672-1.078-0.593-1.684c1.086-8.139,0.997-16.264,5.175-24.049c12.274-22.881,23.745-46.191,35.59-69.302
	c1.05-2.047,1.54-4.074,1.511-6.37c-0.098-7.788,0.008-15.581-0.119-23.368c-0.081-4.953,1.789-8.891,5.725-11.755
	c1.171-0.853,1.547-1.684,1.511-3.007c-0.05-1.778-0.142-3.586,0.121-5.332c0.384-2.544,2.135-3.899,4.655-3.868
	c2.488,0.028,4.195,1.338,4.645,3.906c0.153,0.87,0.249,1.801,0.105,2.659c-0.5,2.937,0.874,3.383,3.508,3.415
	c2.743,0.035,3.88-0.63,3.442-3.465c-0.146-0.958,0.056-2,0.255-2.972c0.464-2.279,2.069-3.406,4.25-3.552
	c2.369-0.158,4.089,1.018,4.845,3.283c0.308,0.921,0.185,1.979,0.322,2.964c0.166,1.167-0.648,3.019,0.479,3.373
	c1.718,0.543,3.732,0.323,5.6,0.163c1.067-0.091,0.637-1.232,0.685-1.937c0.104-1.543-0.13-3.1,0.403-4.626
	c0.76-2.181,2.334-3.255,4.534-3.224c2.188,0.031,3.836,1.087,4.448,3.319c0.234,0.85,0.369,1.74,0.415,2.622
	c0.198,3.697,2.112,4.953,5.818,3.966c1.147-0.308,0.953-1.014,0.976-1.742c0.044-1.334-0.099-2.692,0.104-3.999
	c0.417-2.659,2.081-4.218,4.787-4.157c2.468,0.056,4.198,1.319,4.561,3.963c0.12,0.877,0.333,1.784,0.229,2.642
	c-0.31,2.496,0.466,3.358,3.182,3.391c3.036,0.037,3.996-0.768,3.808-3.845c-0.251-4.086,1.645-6.232,4.766-6.188
	c3.071,0.044,4.622,2.183,4.763,6.333c0.038,1.152-0.709,2.96,0.553,3.334c1.738,0.517,3.742,0.257,5.62,0.137
	c0.875-0.054,0.638-1.014,0.668-1.632c0.064-1.221,0.004-2.452,0.128-3.665c0.292-2.874,1.957-4.5,4.818-4.467
	c2.696,0.03,4.819,1.687,4.563,4.298c-0.48,4.892,1.456,8.271,4.862,11.463c2.199,2.061,2.268,5.221,2.265,8.131
	c-0.034,37.505-0.045,75.011-0.177,112.515c-0.027,7.764-5.316,12.982-13.112,13.01c-26.602,0.088-53.202,0.088-79.801,0
	c-7.856-0.027-13.133-5.486-13.222-13.316C43.768,146.164,43.795,138.818,43.773,131.479z"/>
<path fill-rule="evenodd" clip-rule="evenodd" fill="#010405" d="M97.284,67.234c2.892,0.004,5.784-0.054,8.675,0.02
	c3.75,0.096,4.871,1.493,4.919,5.917c0.049,4.412-1.167,6.365-4.691,6.086c-3.814-0.304-3.723,1.689-3.62,4.33
	c0.057,1.486,0.497,2.131,1.997,2.454c4.383,0.938,8.511,2.599,12.144,5.253c1.367,0.999,2.23,1.057,3.236-0.377
	c0.763-1.082,1.657-2.111,2.652-2.982c2.006-1.763,4.276-1.924,6.373-0.273c2.138,1.681,2.862,4.661,0.995,6.15
	c-5.604,4.485-2.582,8.421-0.57,13.22c6.938,16.541-0.253,36.207-15.687,44.182c-16.443,8.496-35.371,3.635-45.878-11.787
	c-13.287-19.5-2.466-47.323,20.694-53.212c2.409-0.611,4.108-4.386,2.782-6.302c-0.698-1.002-1.841-0.482-2.78-0.53
	c-4.126-0.199-5.353-1.635-5.287-6.304c0.063-4.431,1.265-5.768,5.374-5.836C91.5,67.196,94.394,67.234,97.284,67.234z"/>
<path fill-rule="evenodd" clip-rule="evenodd" fill="#29B3A7" d="M64.072,55.796c-0.247,0.506-0.527,1.109-0.828,1.701
	c-7.31,14.329-14.681,28.629-21.873,43.011c-1.178,2.358-2.14,2.361-4.25,1.244c-6.421-3.395-6.473-3.301-3.204-9.711
	c6.601-12.946,13.266-25.863,19.747-38.872c1.116-2.238,2.037-2.745,4.153-1.344c1.557,1.037,3.352,1.717,5.028,2.572
	C63.396,54.678,64.209,54.747,64.072,55.796z"/>
<path fill-rule="evenodd" clip-rule="evenodd" fill="#29B3A7" d="M38.73,105.43c-0.288,0.584-0.575,1.184-0.877,1.778
	c-7.257,14.282-14.542,28.552-21.738,42.862c-0.872,1.734-1.555,2.223-3.479,1.279c-7.158-3.514-7.207-3.441-3.58-10.576
	c6.403-12.598,12.869-25.156,19.175-37.8c1.065-2.136,1.929-2.938,4.135-1.444c1.55,1.053,3.36,1.72,5.03,2.6
	C37.934,104.414,38.688,104.539,38.73,105.43z"/>
<path fill-rule="evenodd" clip-rule="evenodd" fill="#85786E" d="M91.707,29.03c0,2.217,0.143,4.446-0.046,6.646
	c-0.14,1.628-0.916,2.995-2.936,2.943c-2.016-0.05-2.751-1.447-2.799-3.079c-0.125-4.32-0.104-8.647-0.029-12.968
	c0.03-1.722,0.937-3.045,2.784-3.16c1.968-0.122,2.771,1.367,2.912,2.979c0.196,2.199,0.051,4.425,0.051,6.639
	C91.666,29.03,91.687,29.03,91.707,29.03z"/>
<path fill-rule="evenodd" clip-rule="evenodd" fill="#86786E" d="M107.918,29.31c0,2.225,0.025,4.45-0.01,6.673
	c-0.023,1.511-0.624,2.597-2.343,2.624c-1.7,0.026-2.935-0.817-2.979-2.483c-0.123-4.778-0.099-9.563,0.004-14.341
	c0.032-1.601,1.371-2.312,2.773-2.355c1.564-0.05,2.457,1.041,2.517,2.545c0.095,2.442,0.024,4.892,0.024,7.338
	C107.909,29.31,107.914,29.31,107.918,29.31z"/>
<path fill-rule="evenodd" clip-rule="evenodd" fill="#86786E" d="M75.107,28.991c0.004,2.11,0.019,4.22,0,6.33
	c-0.02,1.93-0.832,3.23-2.924,3.279c-2.138,0.052-2.517-1.398-2.515-3.124c0.004-4.219,0.008-8.439-0.004-12.657
	c-0.003-1.718,0.459-3.284,2.393-3.384c2.014-0.104,2.957,1.334,3.029,3.229C75.167,24.77,75.103,26.881,75.107,28.991z"/>
<path fill-rule="evenodd" clip-rule="evenodd" fill="#86786E" d="M53.044,28.983c0.002-2.221-0.005-4.442,0.004-6.664
	c0.01-1.691,0.86-2.843,2.535-2.928c1.881-0.096,2.835,1.121,2.853,2.941c0.041,4.443,0.041,8.883-0.005,13.325
	c-0.019,1.814-0.936,3.003-2.863,2.907c-1.742-0.086-2.496-1.265-2.519-2.92C53.02,33.426,53.042,31.203,53.044,28.983z"/>
<path fill-rule="evenodd" clip-rule="evenodd" fill="#86786E" d="M124.57,28.892c0,2.219,0.027,4.44-0.008,6.66
	c-0.028,1.797-0.832,3.058-2.768,3.012c-1.941-0.046-2.637-1.365-2.637-3.148c0-4.33-0.004-8.66,0.009-12.99
	c0.005-1.835,0.892-3.069,2.763-3.033c1.891,0.039,2.642,1.382,2.65,3.17c0.008,2.11,0.003,4.219,0.003,6.33
	C124.579,28.892,124.575,28.892,124.57,28.892z"/>
<path fill-rule="evenodd" clip-rule="evenodd" fill="#86786E" d="M135.798,28.947c-0.006-2.11-0.016-4.219-0.002-6.33
	c0.014-1.742,0.615-3.181,2.577-3.192c1.672-0.01,2.738,1.175,2.775,2.774c0.105,4.659,0.125,9.326-0.024,13.983
	c-0.054,1.64-1.315,2.49-3.02,2.425c-1.706-0.065-2.281-1.154-2.298-2.665C135.784,33.61,135.802,31.28,135.798,28.947z"/>
<path fill-rule="evenodd" clip-rule="evenodd" fill="#29B3A7" d="M5.164,150.336c0.283-0.035,0.407-0.098,0.498-0.059
	c8.186,3.252,8.186,3.252,1.891,9.115c-1.104,1.029-2.229,2.035-3.913,3.566C4.289,158.213,4.21,154.197,5.164,150.336z"/>
<path fill-rule="evenodd" clip-rule="evenodd" fill="#FFFFFF" d="M46.074,63.671c-0.856-7.495-0.795-7.618,3.49-7.272
	C48.872,58.948,47.5,61.09,46.074,63.671z"/>
<path fill-rule="evenodd" clip-rule="evenodd" fill="#86786E" d="M129.977,120.197c0.595,17.975-14.52,33.258-32.88,33.121
	c-18.782-0.143-33.132-14.375-33.086-33.063c0.048-20.27,16.472-32.798,32.862-32.925C116.181,87.177,130.696,103.6,129.977,120.197
	z"/>
<path fill-rule="evenodd" clip-rule="evenodd" fill="#FFFFFF" d="M97.262,69.25c2.883,0.004,5.768,0.042,8.647-0.008
	c3.109-0.054,3.165,2.009,3.191,4.274c0.026,2.335-0.556,3.886-3.301,3.862c-5.763-0.061-11.529-0.058-17.294-0.003
	c-2.953,0.027-3.396-1.736-3.398-4.139c-0.004-2.469,0.586-4.112,3.509-4.008C91.494,69.33,94.38,69.246,97.262,69.25z"/>
<path fill-rule="evenodd" clip-rule="evenodd" fill="#ED6B78" d="M128.68,91.07c0.051,1.313-3.649,6.504-4.466,6.542
	c-0.584,0.031-3.713-3.424-3.679-4.062c0.066-1.209,4.156-4.915,5.43-4.9C127.721,88.675,128.549,89.657,128.68,91.07z"/>
<path fill-rule="evenodd" clip-rule="evenodd" fill="#FFFFFF" d="M96.073,85.437c-1.847,0.404-2.701-0.349-2.784-2.972
	c-0.105-3.409,1.882-2.906,4.007-3.063c2.541-0.192,3.329,0.557,3.428,3.244C100.857,86.391,98.444,85.219,96.073,85.437z"/>
<path fill-rule="evenodd" clip-rule="evenodd" fill="#010405" d="M97.092,148.922c-15.625,1.084-28.854-13.766-28.939-28.578
	c-0.088-14.91,13.094-29.104,28.39-28.981c16.584,0.131,29.21,12.651,29.414,28.97C126.151,135.719,112.52,149.928,97.092,148.922z"
	/>
<path fill-rule="evenodd" clip-rule="evenodd" fill="#29B3A7" d="M96.868,147.02c-15.184-0.201-26.737-11.932-26.628-27.025
	c0.109-14.718,12.592-26.943,27.215-26.658c14.856,0.291,26.698,12.543,26.471,27.389
	C123.698,135.533,111.667,147.225,96.868,147.02z"/>
<path fill-rule="evenodd" clip-rule="evenodd" d="M93.909,109.189c0-2.557-0.042-4.668,0.012-6.777
	c0.052-2.05,0.695-3.932,3.055-4.047c2.45-0.118,3.146,1.816,3.22,3.824c0.12,3.33,0.053,6.666,0.062,9.994
	c0.003,2.209-0.051,4.348,1.123,6.439c1.112,1.986,0.33,3.943-1.421,5.303c-1.628,1.264-3.477,1.387-5.293,0.311
	c-1.979-1.174-3.012-3.252-2.033-5.098C94.44,115.725,93.617,112.211,93.909,109.189z"/>
<path fill-rule="evenodd" clip-rule="evenodd" fill="#D6636E" d="M98.315,108.406c0,1.873,0.008,3.751-0.002,5.625
	c-0.005,0.926-0.436,1.455-1.421,1.371c-0.887-0.074-1.006-0.738-1.008-1.425c-0.01-3.975-0.01-7.944,0.008-11.919
	c0.002-0.813,0.229-1.658,1.192-1.65c0.996,0.008,1.146,0.972,1.171,1.709c0.068,2.092,0.022,4.192,0.022,6.289
	C98.292,108.406,98.304,108.406,98.315,108.406z"/>
<path fill-rule="evenodd" clip-rule="evenodd" fill="#F5E1C5" d="M97.162,122.896c-1.657-0.141-2.709-0.914-2.702-2.664
	c0.008-1.756,1.112-2.654,2.719-2.619c1.454,0.031,2.526,0.971,2.559,2.492C99.772,121.727,98.869,122.746,97.162,122.896z"/>
</svg>
