<?xml version="1.0" encoding="utf-8"?>
<!-- Generator: Adobe Illustrator 16.0.0, SVG Export Plug-In . SVG Version: 6.00 Build 0)  -->
<!DOCTYPE svg PUBLIC "-//W3C//DTD SVG 1.1//EN" "http://www.w3.org/Graphics/SVG/1.1/DTD/svg11.dtd">
<svg version="1.1" id="Layer_1" xmlns="http://www.w3.org/2000/svg" xmlns:xlink="http://www.w3.org/1999/xlink" x="0px" y="0px"
	 width="789.5px" height="669.5px" viewBox="0 0 789.5 669.5" enable-background="new 0 0 789.5 669.5" xml:space="preserve">
<g>
	<path fill="#29B3A7" d="M36.899,44.493h418.127V133.5H36.899V44.493z"/>
	<path fill="#29B3A7" d="M498.322,44.493h178.654V133.5H498.322V44.493z"/>
	<path fill="#29B3A7" stroke="#29B3A7" stroke-width="24" stroke-miterlimit="10" d="M598.294,636.091
		c79.924,0,144.708-64.795,144.708-144.714c0-79.926-64.784-144.714-144.708-144.714c-79.926,0-144.714,64.787-144.714,144.714
		C453.674,571.259,518.406,635.994,598.294,636.091z M598.294,365.96c69.261,0,125.417,56.149,125.417,125.417
		s-56.156,125.414-125.417,125.414c-69.27,0-125.423-56.146-125.423-125.414C472.953,422.145,529.055,366.038,598.294,365.96z"/>
	<path fill="#29B3A7" d="M35.899,258.493h419.127V347.5H35.899V258.493z"/>
	<path fill="#29B3A7" d="M36.845,463.493H381.5V552.5H36.845V463.493z"/>
	<g>
		<g>
			<path fill="#29B3A7" d="M582.188,544.531c-6.382,6.382-16.737,6.382-23.116,0l-35.808-35.814c-6.382-6.376-6.382-16.729,0-23.107
				c6.376-6.382,16.728-6.382,23.11,0l21.335,21.333c1.612,1.606,4.229,1.606,5.841,0l57.772-57.772
				c6.379-6.382,16.734-6.382,23.116,0c3.062,3.064,4.785,7.221,4.785,11.555s-1.724,8.491-4.785,11.556L582.188,544.531z"/>
		</g>
	</g>
</g>
</svg>
