<?xml version="1.0" encoding="utf-8"?>
<!-- Generator: Adobe Illustrator 16.0.0, SVG Export Plug-In . SVG Version: 6.00 Build 0)  -->
<!DOCTYPE svg PUBLIC "-//W3C//DTD SVG 1.1//EN" "http://www.w3.org/Graphics/SVG/1.1/DTD/svg11.dtd">
<svg version="1.1" id="Capa_1" xmlns="http://www.w3.org/2000/svg" xmlns:xlink="http://www.w3.org/1999/xlink" x="0px" y="0px"
	 width="400px" height="545px" viewBox="0 0 400 545" enable-background="new 0 0 400 545" xml:space="preserve">
<g>
	<g>
		<path d="M93.208,4.5c14.536,0,28.201,5.66,38.48,15.94L345.252,234c10.303,10.305,15.961,23.97,15.961,38.506
			c0,14.536-5.66,28.203-15.939,38.481L131.688,524.561c-10.279,10.277-23.932,15.939-38.48,15.939
			c-14.549,0-28.201-5.662-38.482-15.939c-10.291-10.281-15.94-23.947-15.94-38.496s5.672-28.214,15.94-38.481l175.103-175.091
			L54.727,97.4c-10.28-10.279-15.94-23.933-15.94-38.481c0-14.548,5.672-28.202,15.94-38.481C65.007,10.159,78.683,4.5,93.208,4.5z
			 M328.525,251.489l-0.375-0.364L114.578,37.552c-11.429-11.428-31.324-11.428-42.751,0c-5.72,5.722-8.852,13.305-8.852,21.383
			c0,8.078,3.145,15.661,8.852,21.382l192.203,192.177L71.826,464.686c-5.72,5.706-8.852,13.302-8.852,21.38
			c0,8.08,3.145,15.674,8.852,21.395c11.428,11.417,31.321,11.417,42.751,0l213.586-213.573c5.707-5.708,8.852-13.303,8.852-21.368
			C337.025,264.596,334.017,257.161,328.525,251.489z"/>
	</g>
</g>
</svg>
