<?xml version="1.0" encoding="utf-8"?>
<!-- Generator: Adobe Illustrator 16.0.0, SVG Export Plug-In . SVG Version: 6.00 Build 0)  -->
<!DOCTYPE svg PUBLIC "-//W3C//DTD SVG 1.1//EN" "http://www.w3.org/Graphics/SVG/1.1/DTD/svg11.dtd">
<svg version="1.1" id="Layer_1" xmlns="http://www.w3.org/2000/svg" xmlns:xlink="http://www.w3.org/1999/xlink" x="0px" y="0px"
	 width="545px" height="545px" viewBox="0 0 545 545" enable-background="new 0 0 545 545" xml:space="preserve">
<g>
	<path d="M486.807,65.649h-55.69V41.782c0-4.4-3.557-7.956-7.956-7.956h-55.69c-4.399,0-7.956,3.556-7.956,7.956v23.868H184.486
		V41.782c0-4.4-3.557-7.956-7.956-7.956h-55.69c-4.4,0-7.956,3.556-7.956,7.956v23.868h-55.69c-4.399,0-7.956,3.556-7.956,7.955
		v87.515v342.1c0,4.398,3.557,7.956,7.956,7.956h429.613c4.4,0,7.955-3.558,7.955-7.956v-342.1V73.604
		C494.762,69.205,491.207,65.649,486.807,65.649z M375.425,49.737h39.779v23.867v23.868h-39.779V73.604V49.737z M128.795,49.737
		h39.779v23.867v23.868h-39.779V73.604V49.737z M65.149,81.561h47.734v23.868c0,4.399,3.556,7.956,7.956,7.956h55.69
		c4.399,0,7.956-3.557,7.956-7.956V81.561h175.027v23.868c0,4.399,3.557,7.956,7.956,7.956h55.69c4.399,0,7.956-3.557,7.956-7.956
		V81.561h47.735v71.602H65.149V81.561z M65.149,495.262V169.074h413.702v326.188H65.149z"/>
	<path d="M335.646,216.809h-55.691h-15.911h-55.691h-15.911H120.84v71.602v15.913v55.69v15.912v71.602h71.602h15.911h55.691h15.911
		h55.691h15.911h71.603v-71.602v-15.912v-55.69V288.41v-71.602h-71.603H335.646z M279.955,232.722h55.691v55.688h-55.691V232.722z
		 M335.646,360.014h-55.691v-55.69h55.691V360.014z M208.353,304.323h55.691v55.69h-55.691V304.323z M208.353,232.722h55.691v55.688
		h-55.691V232.722z M136.751,232.722h55.69v55.688h-55.69V232.722z M136.751,304.323h55.69v55.69h-55.69V304.323z M192.442,431.616
		h-55.69v-55.69h55.69V431.616z M264.044,431.616h-55.691v-55.69h55.691V431.616z M335.646,431.616h-55.691v-55.69h55.691V431.616z
		 M407.249,431.616h-55.691v-55.69h55.691V431.616z M407.249,360.014h-55.691v-55.69h55.691V360.014z M407.249,232.722v55.688
		h-55.691v-55.688H407.249z"/>
</g>
</svg>
