<?xml version="1.0" encoding="iso-8859-1"?>
<!-- Generator: Adobe Illustrator 19.0.0, SVG Export Plug-In . SVG Version: 6.00 Build 0)  -->
<svg version="1.1" id="Capa_1" xmlns="http://www.w3.org/2000/svg" xmlns:xlink="http://www.w3.org/1999/xlink" x="0px" y="0px"
	 viewBox="0 0 512 512" style="enable-background:new 0 0 512 512;" xml:space="preserve">
<g>
	<g>
		<path d="M512,346c0-19.555-12.541-36.228-30-42.42V190.226l21.686-10.798C508.781,176.891,512,171.691,512,166
			s-3.22-10.891-8.314-13.428l-241-120c-4.211-2.097-9.162-2.097-13.372,0l-241,120C3.22,155.109,0,160.31,0,166
			s3.22,10.891,8.314,13.428l91.782,45.7l21.336,86.947c0.827,3.368,2.794,6.345,5.568,8.425c37.508,28.131,82.115,43,129,43
			s91.493-14.869,129-43c2.774-2.081,4.741-5.058,5.567-8.425l21.336-86.946L452,205.164v98.417c-17.459,6.192-30,22.865-30,42.42
			c0,14.224,6.641,26.92,16.978,35.172C430.264,391.237,422,404.997,422,421c0,31.926,32.888,54.934,36.638,57.453
			c5.056,3.396,11.668,3.397,16.725,0C479.113,475.934,512,452.927,512,421c0-16.003-8.263-29.764-16.978-39.828
			C505.359,372.92,512,360.225,512,346z M362.739,299.601c-63.584,44.883-149.892,44.883-213.478,0l-13.975-56.951l114.028,56.778
			c4.21,2.096,9.161,2.097,13.372,0l114.029-56.778L362.739,299.601z M256,269.244C247.738,265.13,57.973,170.641,48.653,166
			L256,62.757L463.347,166C459.335,167.998,265.951,264.289,256,269.244z M467.002,446.661C459.977,440.023,452,430.223,452,421
			c0-9.226,7.982-19.03,14.998-25.661C474.024,401.978,482,411.778,482,421C482,430.226,474.018,440.031,467.002,446.661z M467,361
			c-8.271,0-15-6.729-15-15s6.729-15,15-15s15,6.729,15,15S475.271,361,467,361z"/>
	</g>
</g>
<g>
	<g>
		<path d="M330.247,129.034c-5.857-5.858-15.355-5.858-21.213,0C294.868,143.199,276.033,151,256,151
			c-20.033,0-38.867-7.801-53.033-21.967c-5.858-5.857-15.355-5.858-21.213,0c-5.858,5.858-5.858,15.356,0,21.214
			C201.586,170.078,227.954,181,256,181c28.045,0,54.414-10.922,74.247-30.753C336.104,144.389,336.105,134.892,330.247,129.034z"/>
	</g>
</g>
<g>
</g>
<g>
</g>
<g>
</g>
<g>
</g>
<g>
</g>
<g>
</g>
<g>
</g>
<g>
</g>
<g>
</g>
<g>
</g>
<g>
</g>
<g>
</g>
<g>
</g>
<g>
</g>
<g>
</g>
</svg>
