<?xml version="1.0" encoding="utf-8"?>
<!-- Generator: Adobe Illustrator 16.0.0, SVG Export Plug-In . SVG Version: 6.00 Build 0)  -->
<!DOCTYPE svg PUBLIC "-//W3C//DTD SVG 1.1//EN" "http://www.w3.org/Graphics/SVG/1.1/DTD/svg11.dtd">
<svg version="1.1" id="Capa_1" xmlns="http://www.w3.org/2000/svg" xmlns:xlink="http://www.w3.org/1999/xlink" x="0px" y="0px"
	 width="512px" height="512px" viewBox="0 0 512 512" enable-background="new 0 0 512 512" xml:space="preserve">
<g>
	<g>
		<path d="M301.28,256.005L502.618,54.668c12.509-12.499,12.509-32.777,0-45.275c-12.509-12.509-32.767-12.509-45.275,0
			L256.005,210.73L54.657,9.393c-12.509-12.509-32.767-12.509-45.275,0c-12.509,12.498-12.509,32.777,0,45.275L210.73,256.005
			L9.382,457.343c-12.509,12.498-12.509,32.777,0,45.275c6.254,6.244,14.451,9.371,22.638,9.371c8.186,0,16.383-3.127,22.638-9.382
			L256.005,301.27l201.337,201.338c6.255,6.255,14.451,9.382,22.638,9.382s16.384-3.127,22.638-9.382
			c12.509-12.498,12.509-32.777,0-45.275L301.28,256.005z"/>
	</g>
</g>
</svg>
