<?xml version="1.0" encoding="utf-8"?>
<!-- Generator: Adobe Illustrator 16.0.0, SVG Export Plug-In . SVG Version: 6.00 Build 0)  -->
<!DOCTYPE svg PUBLIC "-//W3C//DTD SVG 1.1//EN" "http://www.w3.org/Graphics/SVG/1.1/DTD/svg11.dtd">
<svg version="1.1" id="Capa_1" xmlns="http://www.w3.org/2000/svg" xmlns:xlink="http://www.w3.org/1999/xlink" x="0px" y="0px"
	 width="407.589px" height="367.589px" viewBox="0 0 407.589 367.589" enable-background="new 0 0 407.589 367.589"
	 xml:space="preserve">
<g>
	<g>
		<path d="M343.687,49.54H131.244c-8,0-14.486,7.025-14.486,15.675c0,8.667,6.487,15.678,14.486,15.678h212.44
			c8.001,0,14.484-7.012,14.484-15.678C358.171,56.566,351.686,49.54,343.687,49.54z"/>
	</g>
	<g>
		<path d="M343.687,124.157H131.244c-8,0-14.486,7.023-14.486,15.676c0,8.665,6.487,15.678,14.486,15.678h212.44
			c8.001,0,14.484-7.014,14.484-15.678C358.171,131.181,351.686,124.157,343.687,124.157z"/>
	</g>
	<g>
		<path d="M343.687,198.773H131.244c-8,0-14.486,7.026-14.486,15.678c0,8.663,6.487,15.676,14.486,15.676h212.44
			c8.001,0,14.484-7.013,14.484-15.676C358.171,205.799,351.686,198.773,343.687,198.773z"/>
	</g>
	<g>
		<path d="M343.687,273.392H131.244c-8,0-14.486,7.026-14.486,15.676c0,8.668,6.487,15.678,14.486,15.678h212.44
			c8.001,0,14.484-7.012,14.484-15.678C358.171,280.418,351.686,273.392,343.687,273.392z"/>
	</g>
</g>
<circle cx="71.207" cy="65.49" r="15.701"/>
<circle cx="71.207" cy="140.399" r="15.701"/>
<circle cx="71.207" cy="215.309" r="15.701"/>
<circle cx="71.207" cy="290.218" r="15.701"/>
</svg>
