<?xml version="1.0" encoding="utf-8"?>
<!-- Generator: Adobe Illustrator 16.0.0, SVG Export Plug-In . SVG Version: 6.00 Build 0)  -->
<!DOCTYPE svg PUBLIC "-//W3C//DTD SVG 1.1//EN" "http://www.w3.org/Graphics/SVG/1.1/DTD/svg11.dtd">
<svg version="1.1" id="Capa_1" xmlns="http://www.w3.org/2000/svg" xmlns:xlink="http://www.w3.org/1999/xlink" x="0px" y="0px"
	 width="407.589px" height="367.589px" viewBox="0 0 407.589 367.589" enable-background="new 0 0 407.589 367.589"
	 xml:space="preserve">
<g>
	<g>
		<g>
			<path d="M311.36,64.786H108.785c-7.628,0-13.813,6.19-13.813,13.811c0,7.636,6.186,13.813,13.813,13.813h202.573
				c7.629,0,13.812-6.178,13.812-13.813C325.172,70.977,318.987,64.786,311.36,64.786z"/>
		</g>
		<g>
			<path d="M311.36,130.529H108.785c-7.628,0-13.813,6.188-13.813,13.811c0,7.634,6.186,13.813,13.813,13.813h202.573
				c7.629,0,13.812-6.18,13.812-13.813C325.172,136.718,318.987,130.529,311.36,130.529z"/>
		</g>
		<g>
			<path d="M311.36,196.27H108.785c-7.628,0-13.813,6.19-13.813,13.813c0,7.633,6.186,13.812,13.813,13.812h202.573
				c7.629,0,13.812-6.179,13.812-13.812C325.172,202.46,318.987,196.27,311.36,196.27z"/>
		</g>
		<g>
			<path d="M311.36,262.014H108.785c-7.628,0-13.813,6.19-13.813,13.812c0,7.637,6.186,13.813,13.813,13.813h202.573
				c7.629,0,13.812-6.178,13.812-13.813C325.172,268.205,318.987,262.014,311.36,262.014z"/>
		</g>
	</g>
	<g>
		<path d="M378.114,345.984H32.063c-10.993,0-19.937-8.944-19.937-19.938V37.132c0-10.993,8.943-19.937,19.937-19.937h346.051
			c10.993,0,19.937,8.943,19.937,19.937v288.915C398.051,337.04,389.107,345.984,378.114,345.984z M32.063,31.195
			c-3.273,0-5.937,2.663-5.937,5.937v288.915c0,3.274,2.663,5.938,5.937,5.938h346.051c3.273,0,5.937-2.663,5.937-5.938V37.132
			c0-3.273-2.663-5.937-5.937-5.937H32.063z"/>
	</g>
</g>
</svg>
