<?xml version="1.0" encoding="utf-8"?>
<!-- Generator: Adobe Illustrator 16.0.0, SVG Export Plug-In . SVG Version: 6.00 Build 0)  -->
<!DOCTYPE svg PUBLIC "-//W3C//DTD SVG 1.1//EN" "http://www.w3.org/Graphics/SVG/1.1/DTD/svg11.dtd">
<svg version="1.1" id="Layer_1" xmlns="http://www.w3.org/2000/svg" xmlns:xlink="http://www.w3.org/1999/xlink" x="0px" y="0px"
	 width="512px" height="512px" viewBox="0 0 512 512" enable-background="new 0 0 512 512" xml:space="preserve">
<path d="M306,346h-10V216c0-5.523-4.477-10-10-10h-80c-5.523,0-10,4.477-10,10v40c0,5.523,4.477,10,10,10h10v80h-10
	c-5.523,0-10,4.477-10,10v40c0,5.523,4.477,10,10,10h100c5.523,0,10-4.477,10-10v-40C316,350.477,311.523,346,306,346z M296,386h-80
	v-20h10c5.523,0,10-4.477,10-10V256c0-5.523-4.477-10-10-10h-10v-20h60v130c0,5.523,4.48,10,10,10h10V386z"/>
<path d="M256,186c22.055,0,40-17.945,40-40s-17.945-40-40-40s-40,17.945-40,40S233.945,186,256,186z M256,126
	c11.027,0,20,8.973,20,20s-8.973,20-20,20s-20-8.973-20-20S244.973,126,256,126z"/>
<path d="M256,0C118.023,0,0,117.801,0,256c0,47.207,13.527,97.41,36.336,135.382L0.512,498.84c-1.195,3.59-0.262,7.555,2.418,10.23
	c2.691,2.691,6.66,3.609,10.234,2.414l107.457-35.82C158.59,498.477,208.793,512,256,512c138.012,0,256-117.816,256-256
	C512,117.989,394.188,0,256,0z M256,492c-45.285,0-93.418-13.363-128.758-35.746c-2.504-1.586-5.625-2.004-8.516-1.039
	l-92.914,30.973l30.973-92.914c0.953-2.852,0.57-5.977-1.039-8.516C33.363,349.422,20,301.285,20,256C20,128.075,128.074,20,256,20
	s236,108.074,236,236C492,383.926,383.926,492,256,492z"/>
</svg>
