<?xml version="1.0" encoding="utf-8"?>
<!-- Generator: Adobe Illustrator 16.0.2, SVG Export Plug-In . SVG Version: 6.00 Build 0)  -->
<!DOCTYPE svg PUBLIC "-//W3C//DTD SVG 1.1//EN" "http://www.w3.org/Graphics/SVG/1.1/DTD/svg11.dtd">
<svg version="1.1" id="Layer_1" xmlns="http://www.w3.org/2000/svg" xmlns:xlink="http://www.w3.org/1999/xlink" x="0px" y="0px"
	 width="1300.771px" height="778.128px" viewBox="0 0 1300.771 778.128" enable-background="new 0 0 1300.771 778.128"
	 xml:space="preserve">
<path fill="#3B6F85" d="M0.109,221.109c28.651-8.141,55.985-19.708,83.16-31.734c30.36-13.435,60.876-26.514,91.248-39.925
	c21.296-9.403,42.736-18.451,65.018-25.243c22.857-6.969,45.494-14.823,69.141-18.894c12.574-2.165,25.166-4.036,37.965-4.706
	c7.371-0.386,14.747-0.927,22.087-0.581c32.629,1.546,64.106,7.875,92.994,23.936c11.863,6.596,22.563,14.806,32.437,24.187
	c19.333,18.365,36.468,38.481,50.479,61.218c11.496,18.655,21.175,38.202,29.678,58.391c7.388,17.542,13.748,35.44,19.951,53.417
	c8.234,23.863,19.065,46.659,29.165,69.751c7.016,16.04,13.56,32.313,21.236,48.033c9.536,19.531,21.834,37.492,33.982,55.479
	c10.926,16.179,21.937,32.363,34.349,47.396c12.261,14.852,26.51,27.938,40.637,41.069c19.863,18.466,41.149,35.063,63.962,49.69
	c12.135,7.78,24.961,14.368,37.538,21.389c19.948,11.135,41.298,18.592,62.789,25.707c22.57,7.473,45.769,12.742,69.134,16.978
	c12.117,2.196,24.452,3.477,36.798,4.351c8.007,0.565,15.953,1.973,23.93,2.964c1.434,0.177,2.89,0.22,4.336,0.222
	c16.85,0.014,33.72,0.522,50.542-0.155c13.352-0.538,26.709-1.653,40.044-2.915c9.597-0.907,19.241-1.539,28.818-2.646
	c12.795-1.478,25.613-3.007,38.271-5.329c21.523-3.951,42.931-8.529,64.383-12.864c6.861-1.388,13.748-2.684,20.541-4.349
	c2.021-0.495,3.953-0.672,5.968-0.679c0,32.973-0.052,65.944,0.081,98.916c0.013,3.216-0.656,4.031-3.979,4.03
	c-233.273-0.093-466.549-0.086-699.824-0.086c-197.542,0-395.083-0.01-592.626,0.084c-3.338,0.002-4.344-0.396-4.341-4.129
	C0.124,589.758,0.109,405.433,0.109,221.109z"/>
</svg>
