<?xml version="1.0" encoding="utf-8"?>
<!-- Generator: Adobe Illustrator 16.0.0, SVG Export Plug-In . SVG Version: 6.00 Build 0)  -->
<!DOCTYPE svg PUBLIC "-//W3C//DTD SVG 1.1//EN" "http://www.w3.org/Graphics/SVG/1.1/DTD/svg11.dtd">
<svg version="1.1" id="Capa_1" xmlns="http://www.w3.org/2000/svg" xmlns:xlink="http://www.w3.org/1999/xlink" x="0px" y="0px"
	 width="612px" height="612px" viewBox="0 0 612 612" enable-background="new 0 0 612 612" xml:space="preserve">
<g>
	<g id="_x36__30_">
		<g>
			<path d="M331.686,395.378c-7.479,7.479-7.479,19.584,0,27.043c7.479,7.479,19.584,7.479,27.043,0l131.942-131.962
				c3.979-3.979,5.681-9.276,5.412-14.479c0.269-5.222-1.434-10.5-5.412-14.478L358.729,129.56c-7.459-7.478-19.584-7.478-27.043,0
				c-7.479,7.478-7.479,19.584,0,27.042l100.271,100.272H19.125C8.568,256.875,0,265.443,0,276c0,10.557,8.568,19.125,19.125,19.125
				h412.832L331.686,395.378z M535.5,8.25H153c-42.247,0-76.5,34.253-76.5,76.5v76.5h38.25v-76.5c0-21.114,17.117-38.25,38.25-38.25
				h382.5c21.133,0,38.25,17.136,38.25,38.25v382.5c0,21.114-17.117,38.25-38.25,38.25H153c-21.133,0-38.25-17.117-38.25-38.25
				v-76.5H76.5v76.5c0,42.247,34.253,76.5,76.5,76.5h382.5c42.247,0,76.5-34.253,76.5-76.5V84.75
				C612,42.503,577.747,8.25,535.5,8.25z"/>
		</g>
	</g>
</g>
</svg>
