<?xml version="1.0" encoding="utf-8"?>
<!-- Generator: Adobe Illustrator 19.0.0, SVG Export Plug-In . SVG Version: 6.00 Build 0)  -->
<svg version="1.1" baseProfile="tiny" id="Layer_1" xmlns="http://www.w3.org/2000/svg" xmlns:xlink="http://www.w3.org/1999/xlink"
	 x="0px" y="0px" viewBox="0 0 380.3 366.4" xml:space="preserve">
<path fill="#4C95FB" d="M150,366.4c-8.2-0.1-15.5-2.6-21.4-8.3c-22.6-22-45.2-43.9-67.5-66.1c-17.8-17.7-35.3-35.8-53-53.7
	c-4.7-4.7-9.2-9.6-7.8-16.9c0.7-3.6,1.7-7.8,4-10.3C15,199.7,26,188.6,37.4,177.8c6.5-6.1,17.1-5.7,23.6,0.6
	c19.2,18.5,38.2,37.2,57.2,55.9c6.3,6.2,12.7,12.3,18.7,18.7c3.1,3.3,4.9,3.2,7.5-0.7c26.7-39.6,53.5-79.2,80.4-118.7
	c27.8-40.7,56-81.2,83.4-122.1c9.4-14,22.1-14.1,32.8-6.4c9.7,7,19.7,13.6,29.3,20.8c11.5,8.6,13,18,5,29.8
	c-42.8,63.3-85.7,126.7-128.6,189.9c-24.7,36.4-49.6,72.6-74.5,108.8C167.1,362.1,159.5,366.3,150,366.4z"/>
</svg>
