<?xml version="1.0" encoding="utf-8"?>
<!-- Generator: Adobe Illustrator 16.0.0, SVG Export Plug-In . SVG Version: 6.00 Build 0)  -->
<!DOCTYPE svg PUBLIC "-//W3C//DTD SVG 1.1//EN" "http://www.w3.org/Graphics/SVG/1.1/DTD/svg11.dtd">
<svg version="1.1" id="Layer_1" xmlns="http://www.w3.org/2000/svg" xmlns:xlink="http://www.w3.org/1999/xlink" x="0px" y="0px"
	 width="512px" height="512px" viewBox="0 0 512 512" enable-background="new 0 0 512 512" xml:space="preserve">
<path d="M166.281,98.637H76.758c-8.285,0-15,6.715-15,15s6.715,15,15,15h89.523c8.281,0,15-6.715,15-15
	S174.563,98.637,166.281,98.637z"/>
<path d="M166.281,158.641H76.758c-8.285,0-15,6.715-15,15s6.715,15,15,15h89.523c8.281,0,15-6.715,15-15
	S174.563,158.641,166.281,158.641z"/>
<path d="M166.281,218.645H76.758c-8.285,0-15,6.715-15,15s6.715,15,15,15h89.523c8.281,0,15-6.715,15-15
	S174.563,218.645,166.281,218.645z"/>
<path d="M166.281,278.648H76.758c-8.285,0-15,6.715-15,15s6.715,15,15,15h89.523c8.281,0,15-6.715,15-15
	S174.563,278.648,166.281,278.648z"/>
<path d="M166.281,339.656H76.758c-8.285,0-15,6.719-15,15c0,8.285,6.715,15,15,15h89.523c8.281,0,15-6.715,15-15
	C181.281,346.375,174.563,339.656,166.281,339.656z"/>
<path d="M216.656,128.637h89.523c8.285,0,15-6.715,15-15s-6.715-15-15-15h-89.523c-8.281,0-15,6.715-15,15
	S208.375,128.637,216.656,128.637z"/>
<path d="M216.656,188.641h89.523c8.285,0,15-6.715,15-15s-6.715-15-15-15h-89.523c-8.281,0-15,6.715-15,15
	S208.375,188.641,216.656,188.641z"/>
<path d="M274.773,233.645c0-8.285-6.715-15-15-15h-43.117c-8.281,0-15,6.715-15,15s6.719,15,15,15h43.117
	C268.059,248.645,274.773,241.93,274.773,233.645z"/>
<g>
	<path d="M454.785,299.941c-19.539-19.883-44.645-32.414-71.848-36.105V60.41c0-33.309-27.102-60.41-60.41-60.41H60.414
		C27.102,0,0,27.102,0,60.41v347.473c0,33.313,27.102,60.414,60.41,60.414h210.816C294.949,496.164,329.059,512,365.961,512
		c68.691,0,124.574-55.922,124.574-124.66C490.535,354.434,477.84,323.395,454.785,299.941z M30,407.883V60.41
		C30,43.645,43.645,30,60.414,30h262.113c16.77,0,30.41,13.645,30.41,30.41v202.949C290.344,269.895,241.387,323,241.387,387.34
		c0,17.832,3.719,35.074,10.852,50.953H60.414C43.645,438.293,30,424.652,30,407.883z M365.961,482
		c-29.957,0-57.496-13.754-75.563-37.73c-12.438-16.512-19.016-36.195-19.016-56.93c0-52.195,42.43-94.66,94.578-94.66
		c0.492,0,0.988,0.008,1.48,0.016l0.23,0.004c24.895,0.441,48.234,10.48,65.719,28.27c17.504,17.809,27.145,41.383,27.145,66.371
		C460.535,439.535,418.109,482,365.961,482z"/>
	<g id="Close">
		<path d="M378.36,387l37.081-37.08c3.412-3.413,3.412-8.947,0-12.36c-3.414-3.413-8.947-3.413-12.36,0L366,374.641l-37.08-37.081
			c-3.413-3.414-8.947-3.414-12.36,0c-3.412,3.413-3.412,8.947,0,12.359l37.08,37.08l-37.08,37.081
			c-3.412,3.413-3.412,8.947,0,12.359c3.413,3.413,8.947,3.413,12.36,0L366,399.358l37.081,37.081c3.412,3.413,8.946,3.413,12.36,0
			c3.412-3.413,3.412-8.946,0-12.359L378.36,387z"/>
	</g>
</g>
</svg>
