<?xml version="1.0" encoding="utf-8"?>
<!-- Generator: Adobe Illustrator 16.0.0, SVG Export Plug-In . SVG Version: 6.00 Build 0)  -->
<!DOCTYPE svg PUBLIC "-//W3C//DTD SVG 1.1//EN" "http://www.w3.org/Graphics/SVG/1.1/DTD/svg11.dtd">
<svg version="1.1" id="Layer_1" xmlns="http://www.w3.org/2000/svg" xmlns:xlink="http://www.w3.org/1999/xlink" x="0px" y="0px"
	 width="512px" height="512px" viewBox="0 0 512 512" enable-background="new 0 0 512 512" xml:space="preserve">
<path stroke="#000000" stroke-width="8" stroke-miterlimit="10" d="M306,346h-10V216c0-5.523-4.477-10-10-10h-80
	c-5.523,0-10,4.477-10,10v40c0,5.523,4.477,10,10,10h10v80h-10c-5.523,0-10,4.477-10,10v40c0,5.523,4.477,10,10,10h100
	c5.523,0,10-4.477,10-10v-40C316,350.477,311.523,346,306,346z M296,386h-80v-20h10c5.523,0,10-4.477,10-10V256
	c0-5.523-4.477-10-10-10h-10v-20h60v130c0,5.523,4.48,10,10,10h10V386z"/>
<path stroke="#000000" stroke-width="8" stroke-miterlimit="10" d="M256,186c22.055,0,40-17.945,40-40s-17.945-40-40-40
	s-40,17.945-40,40S233.945,186,256,186z M256,126c11.027,0,20,8.973,20,20s-8.973,20-20,20s-20-8.973-20-20S244.973,126,256,126z"/>
<path stroke="#000000" stroke-width="10" stroke-miterlimit="10" d="M81.877,276.85c3.893-3.914,3.875-10.25-0.04-14.141
	c-3.914-3.893-10.25-3.875-14.142,0.039c-3.893,3.914-3.875,10.25,0.04,14.141C71.649,280.781,77.986,280.764,81.877,276.85z"/>
<path stroke="#000000" stroke-width="10" stroke-miterlimit="10" d="M115.412,160.411c6.869-10.81,14.81-20.911,23.601-30.025
	c3.835-3.974,3.719-10.304-0.253-14.139c-0.496-0.481-1.027-0.897-1.587-1.253c-3.926-2.496-9.198-1.972-12.555,1.505
	c-9.724,10.08-18.498,21.245-26.086,33.185c-16.887,26.577-27.375,55.813-31.167,86.903c-0.668,5.48,3.23,10.466,8.715,11.137
	c5.483,0.671,10.468-3.234,11.138-8.717C90.647,210.898,100.133,184.455,115.412,160.411z"/>
<path stroke="#000000" stroke-width="10" stroke-miterlimit="10" d="M19.471,256.658c0.356,127.483,109.501,236.226,237.189,235.87
	c43.616-0.121,89.966-12.749,124.992-33.921l99.377,32.822c3.319,1.096,6.98,0.223,9.446-2.261c2.479-2.492,3.317-6.162,2.203-9.462
	l-33.372-99.191c20.979-35.14,33.345-81.561,33.224-125.177c-0.356-127.516-109.517-236.226-237.189-235.87
	C127.826,19.825,19.115,128.981,19.471,256.658z M474.051,255.391c0.116,41.842-12.106,86.348-32.695,119.058
	c-1.459,2.317-1.837,5.202-0.938,7.87l28.857,85.768l-85.929-28.378c-2.637-0.873-5.522-0.511-7.864,0.982
	c-32.591,20.772-77.032,33.242-118.873,33.359C138.413,474.379,38.279,374.803,37.95,256.607
	C37.62,138.411,137.196,38.278,255.392,37.948C373.589,37.619,473.722,137.195,474.051,255.391z"/>
</svg>
