<?xml version="1.0" encoding="utf-8"?>
<!-- Generator: Adobe Illustrator 16.0.0, SVG Export Plug-In . SVG Version: 6.00 Build 0)  -->
<!DOCTYPE svg PUBLIC "-//W3C//DTD SVG 1.1//EN" "http://www.w3.org/Graphics/SVG/1.1/DTD/svg11.dtd">
<svg version="1.1" id="Capa_1" xmlns="http://www.w3.org/2000/svg" xmlns:xlink="http://www.w3.org/1999/xlink" x="0px" y="0px"
	 width="385px" height="385px" viewBox="0 0 385 385" enable-background="new 0 0 385 385" xml:space="preserve">
<g>
	<g>
		<g>
			<circle fill="#9EA3A6" cx="278.223" cy="260.176" r="15.039"/>
			<path fill="#9EA3A6" d="M345.898,272.207c8.307,0,15.039-6.732,15.039-15.039v-55.645c0-33.17-26.985-60.156-60.155-60.156
				h-18.075V88.329C282.706,39.624,242.229,0,192.472,0c-49.755,0-90.234,39.624-90.234,88.329v53.038H84.219
				c-33.17,0-60.156,26.986-60.156,60.156v123.319c0,33.17,26.986,60.156,60.156,60.156h216.563
				c33.17,0,60.155-26.986,60.155-60.156c0-8.307-6.732-15.039-15.039-15.039s-15.039,6.732-15.039,15.039
				c0,16.585-13.492,30.078-30.077,30.078H84.219c-16.585,0-30.078-13.493-30.078-30.078V201.523
				c0-16.585,13.493-30.079,30.078-30.079h216.563c16.585,0,30.077,13.493,30.077,30.079v55.645
				C330.859,265.475,337.592,272.207,345.898,272.207z M252.628,141.367H132.316V88.329c0-32.12,26.986-58.251,60.156-58.251
				s60.156,26.131,60.156,58.251V141.367z"/>
			<circle fill="#9EA3A6" cx="164.678" cy="260.176" r="15.039"/>
			<circle fill="#9EA3A6" cx="108.281" cy="260.176" r="15.039"/>
			<circle fill="#9EA3A6" cx="221.074" cy="260.176" r="15.039"/>
		</g>
	</g>
</g>
</svg>
