<?xml version="1.0" encoding="utf-8"?>
<!-- Generator: Adobe Illustrator 16.0.0, SVG Export Plug-In . SVG Version: 6.00 Build 0)  -->
<!DOCTYPE svg PUBLIC "-//W3C//DTD SVG 1.1//EN" "http://www.w3.org/Graphics/SVG/1.1/DTD/svg11.dtd">
<svg version="1.1" id="Layer_1" xmlns="http://www.w3.org/2000/svg" xmlns:xlink="http://www.w3.org/1999/xlink" x="0px" y="0px"
	 width="206.957px" height="61.738px" viewBox="0 0 206.957 61.738" enable-background="new 0 0 206.957 61.738"
	 xml:space="preserve">
<g>
	<g>
		<defs>
			<path id="SVGID_1_" d="M34.025,7.985c-0.336,0.225-0.673,0.113-1.008,0.113c-1.457,0.223-2.801,0.895-4.033,1.568
				c-3.922,2.017-7.843,4.257-11.652,6.722c-2.689,1.793-5.378,3.697-7.842,5.938c-0.785,0.784-1.569,1.456-1.905,2.464
				c0,0.337,0.224,0.561,0.448,0.785c1.457,1.344,2.913,2.577,4.369,3.92c0.224,0.225,0.448,0.561,0.785,0.449
				c2.128-1.568,4.257-2.913,6.385-4.257c4.033-2.466,7.955-4.93,12.212-6.947c0.896-0.448,1.792-0.783,2.689-0.896
				c1.793-0.224,3.361,0.224,5.042,0.785c7.057,2.464,13.331,6.609,19.381,10.866c0.336,0.113,0.56,0.337,0.672,0.673
				c0.449,0.224,0.673-0.112,0.897-0.448c1.567-1.233,2.912-2.689,4.033-4.369c0.224-0.224,0.448-0.561,0.448-0.897
				c-0.224-0.784-0.784-1.233-1.232-1.792c-0.897-1.008-1.906-1.793-2.914-2.577c-3.473-2.577-7.17-4.705-10.979-6.722
				c-2.8-1.569-5.601-3.137-8.626-4.257c-1.569-0.561-3.137-0.785-4.705-1.121H34.025z"/>
		</defs>
		<use xlink:href="#SVGID_1_"  overflow="visible" fill="#FFFFFF"/>
		<clipPath id="SVGID_2_">
			<use xlink:href="#SVGID_1_"  overflow="visible"/>
		</clipPath>
		<defs>
			<filter id="Adobe_OpacityMaskFilter" filterUnits="userSpaceOnUse" x="7.585" y="7.985" width="57.361" height="22.407">
				<feColorMatrix  type="matrix" values="1 0 0 0 0  0 1 0 0 0  0 0 1 0 0  0 0 0 1 0"/>
			</filter>
		</defs>
		<mask maskUnits="userSpaceOnUse" x="7.585" y="7.985" width="57.361" height="22.407" id="SVGID_3_">
			<g filter="url(#Adobe_OpacityMaskFilter)">
				
					<linearGradient id="SVGID_4_" gradientUnits="userSpaceOnUse" x1="-366.8174" y1="330.4365" x2="-365.8174" y2="330.4365" gradientTransform="matrix(57.3608 0 0 -57.3608 21048.5273 18973.3047)">
					<stop  offset="0" style="stop-color:#FFFFFF"/>
					<stop  offset="1" style="stop-color:#808080"/>
				</linearGradient>
				<rect x="7.585" y="7.985" clip-path="url(#SVGID_2_)" fill="url(#SVGID_4_)" width="57.361" height="22.407"/>
			</g>
		</mask>
		<g clip-path="url(#SVGID_2_)" mask="url(#SVGID_3_)">
			<rect x="7.585" y="7.985" fill="#FFFFFF" width="57.361" height="22.407"/>
		</g>
	</g>
	<g>
		<path fill="#AEB5B4" d="M7.809,24.791c0,0.224,0.112,0.336,0.336,0.448c1.793,1.569,3.361,3.137,5.266,4.593
			c1.568,1.345,3.361,2.577,5.153,3.698c4.93,3.136,9.971,5.713,15.349,7.842c1.232,0.448,2.464,0.896,3.697,0.896
			c1.456,0.112,2.577-0.56,3.809-1.232c0.672-0.336,1.232-0.672,1.904-1.009c0.449-0.224,0.561-0.112,0.561,0.337v5.937v3.585
			c0,0.448-0.112,0.785-0.561,1.009c-1.344,0.896-2.688,1.456-4.257,1.568c-0.112,0-0.224,0.112-0.336,0.112h-2.465
			c-3.249-0.112-5.937-1.792-8.738-3.361c-3.249-1.792-6.498-3.585-9.635-5.377c-2.129-1.233-4.145-2.801-6.05-4.258
			c-0.896-0.672-1.792-1.456-2.465-2.352c-1.12-1.457-1.792-3.025-2.24-4.818c-0.112-0.448,0-0.784-0.224-1.232V28.6
			c0.112-0.784,0-1.568,0.112-2.353C6.913,25.911,7.025,25.239,7.809,24.791"/>
	</g>
	<g>
		<path fill="#AEB5B4" d="M59.568,30.168c0.784-0.224,1.232-0.784,1.793-1.344c1.456-1.233,2.576-2.689,3.585-4.37
			c1.792,2.801,2.24,5.826,1.12,8.963c-1.344,3.809-4.033,6.386-7.282,8.626c-0.336,0.225-0.448,0-0.672-0.112
			c-1.905-1.68-3.025-3.809-3.473-6.273c-0.225-1.233,0.112-2.129,1.232-2.801C57.215,32.073,58.336,31.064,59.568,30.168"/>
	</g>
	<g>
		<path fill="#FFFFFF" d="M76.759,35.635c-1.122-0.652-1.984-1.58-2.585-2.783c-0.602-1.203-0.902-2.625-0.902-4.268
			c0-1.628,0.301-3.043,0.902-4.246c0.601-1.202,1.463-2.126,2.585-2.772c1.122-0.645,2.438-0.968,3.949-0.968
			c1.07,0,2.064,0.165,2.981,0.495c0.917,0.33,1.69,0.811,2.321,1.441l-0.792,1.672c-0.734-0.601-1.456-1.038-2.167-1.309
			c-0.712-0.271-1.485-0.407-2.321-0.407c-1.628,0-2.886,0.528-3.773,1.584c-0.888,1.056-1.331,2.56-1.331,4.51
			c0,1.965,0.443,3.48,1.331,4.543c0.887,1.063,2.145,1.595,3.773,1.595c0.836,0,1.609-0.136,2.321-0.407
			c0.711-0.271,1.433-0.708,2.167-1.309l0.792,1.672c-0.631,0.63-1.405,1.111-2.321,1.441s-1.911,0.495-2.981,0.495
			C79.197,36.614,77.88,36.288,76.759,35.635z"/>
		<path fill="#FFFFFF" d="M98.549,29.53v6.908h-2.222v-6.776c0-0.968-0.187-1.672-0.561-2.112s-0.972-0.66-1.793-0.66
			c-0.939,0-1.691,0.293-2.255,0.88c-0.564,0.587-0.847,1.372-0.847,2.354v6.314h-2.2V20.247h2.2v6.82
			c0.366-0.645,0.872-1.136,1.518-1.474c0.645-0.337,1.371-0.506,2.178-0.506C97.222,25.086,98.549,26.568,98.549,29.53z"/>
		<path fill="#FFFFFF" d="M111.859,25.351v11.088h-2.199v-1.892c-0.323,0.66-0.803,1.166-1.441,1.518
			c-0.638,0.352-1.382,0.528-2.233,0.528c-0.983,0-1.845-0.234-2.585-0.704c-0.741-0.469-1.316-1.133-1.727-1.991
			s-0.616-1.859-0.616-3.003s0.209-2.156,0.627-3.036c0.418-0.88,1.001-1.562,1.749-2.046c0.748-0.484,1.598-0.726,2.552-0.726
			c0.851,0,1.591,0.18,2.222,0.539c0.63,0.359,1.114,0.869,1.452,1.529v-1.804H111.859z M108.834,33.788
			c0.55-0.697,0.825-1.676,0.825-2.937c0-1.276-0.275-2.259-0.825-2.948c-0.55-0.689-1.331-1.034-2.343-1.034
			c-0.998,0-1.778,0.355-2.343,1.067c-0.565,0.711-0.847,1.698-0.847,2.959c0,1.247,0.282,2.215,0.847,2.904
			c0.564,0.69,1.353,1.034,2.365,1.034C107.511,34.833,108.285,34.484,108.834,33.788z"/>
		<path fill="#FFFFFF" d="M123.541,25.813c0.748,0.484,1.331,1.166,1.75,2.046c0.418,0.88,0.627,1.892,0.627,3.036
			s-0.206,2.145-0.617,3.003c-0.41,0.858-0.989,1.522-1.737,1.991s-1.606,0.704-2.574,0.704c-0.851,0-1.595-0.179-2.233-0.539
			c-0.638-0.359-1.118-0.876-1.44-1.551v6.688h-2.2V28.475c0-1.159-0.059-2.2-0.176-3.124h2.068l0.22,2.046
			c0.293-0.733,0.77-1.301,1.43-1.705c0.66-0.403,1.438-0.605,2.332-0.605C121.942,25.086,122.792,25.329,123.541,25.813z
			 M122.815,33.798c0.558-0.689,0.836-1.657,0.836-2.904c0-1.261-0.278-2.248-0.836-2.959s-1.335-1.067-2.332-1.067
			c-1.026,0-1.812,0.345-2.354,1.034c-0.543,0.689-0.813,1.672-0.813,2.948s0.274,2.259,0.825,2.948
			c0.55,0.69,1.33,1.034,2.343,1.034C121.48,34.833,122.257,34.488,122.815,33.798z"/>
		<path fill="#FFFFFF" d="M131.351,27.066v5.566c0,0.763,0.164,1.302,0.494,1.617s0.789,0.473,1.375,0.473
			c0.382,0,0.771-0.059,1.166-0.176v1.804c-0.483,0.161-1.033,0.242-1.649,0.242c-1.144,0-2.032-0.322-2.662-0.968
			c-0.631-0.645-0.946-1.584-0.946-2.816v-5.742h-2.156v-1.716h2.156v-2.772l2.223-0.77v3.542h3.058v1.716H131.351z"/>
		<path fill="#FFFFFF" d="M145.915,30.938h-7.92c0.073,2.596,1.254,3.894,3.542,3.894c1.275,0,2.441-0.418,3.498-1.254l0.682,1.584
			c-0.498,0.44-1.133,0.789-1.902,1.045c-0.771,0.256-1.544,0.385-2.321,0.385c-1.774,0-3.168-0.509-4.181-1.529
			c-1.012-1.019-1.518-2.416-1.518-4.191c0-1.129,0.224-2.134,0.672-3.014c0.447-0.88,1.074-1.562,1.881-2.046
			s1.723-0.726,2.75-0.726c1.496,0,2.672,0.484,3.53,1.452c0.858,0.968,1.287,2.31,1.287,4.026V30.938z M139.095,27.484
			c-0.528,0.499-0.866,1.21-1.013,2.134h5.874c-0.088-0.938-0.374-1.654-0.857-2.145c-0.484-0.491-1.137-0.737-1.959-0.737
			C140.304,26.736,139.623,26.986,139.095,27.484z"/>
		<path fill="#FFFFFF" d="M155.044,25.24L155,27.265c-0.396-0.146-0.829-0.22-1.298-0.22c-1.012,0-1.771,0.305-2.277,0.913
			c-0.506,0.609-0.759,1.375-0.759,2.299v6.182h-2.2v-7.964c0-1.159-0.059-2.2-0.176-3.124h2.068l0.197,2.002
			c0.293-0.733,0.748-1.294,1.364-1.683c0.616-0.388,1.306-0.583,2.067-0.583C154.326,25.086,154.677,25.138,155.044,25.24z"/>
		<path fill="#FFFFFF" d="M167.101,34.568v1.87h-10.275v-1.694l5.391-5.918c0.689-0.763,1.191-1.456,1.507-2.079
			s0.474-1.243,0.474-1.859c0-0.792-0.229-1.397-0.683-1.815c-0.454-0.418-1.114-0.627-1.979-0.627
			c-1.452,0-2.904,0.572-4.356,1.716l-0.813-1.672c0.615-0.572,1.4-1.03,2.354-1.375c0.953-0.344,1.914-0.517,2.883-0.517
			c1.495,0,2.68,0.374,3.553,1.122c0.872,0.748,1.309,1.76,1.309,3.036c0,0.91-0.198,1.771-0.594,2.585
			c-0.396,0.814-1.057,1.72-1.98,2.717l-4.18,4.51H167.101z"/>
		<path fill="#FFFFFF" d="M180.873,31.356v1.826h-2.311v3.256h-2.244v-3.256H169.3v-1.694l7.436-10.714h1.826v10.582H180.873z
			 M171.522,31.356h4.796v-6.908L171.522,31.356z"/>
		<path fill="#FFFFFF" d="M182.808,20.774h10.604v1.694l-7.238,13.97h-2.441l7.216-13.794h-8.14V20.774z"/>
	</g>
</g>
</svg>
