<?xml version="1.0" encoding="utf-8"?>
<!-- Generator: Adobe Illustrator 16.0.0, SVG Export Plug-In . SVG Version: 6.00 Build 0)  -->
<!DOCTYPE svg PUBLIC "-//W3C//DTD SVG 1.1//EN" "http://www.w3.org/Graphics/SVG/1.1/DTD/svg11.dtd">
<svg version="1.1" id="Capa_1" xmlns="http://www.w3.org/2000/svg" xmlns:xlink="http://www.w3.org/1999/xlink" x="0px" y="0px"
	 width="256px" height="256px" viewBox="0 0 256 256" enable-background="new 0 0 256 256" xml:space="preserve">
<g>
	<g>
		<path d="M11.5,69.025v117.95c0,16.252,13.259,29.511,29.511,29.511h95.33c16.251,0,29.511-13.259,29.511-29.511v-19.104
			c0-3.232-2.614-5.845-5.845-5.845c-3.232,0-5.846,2.612-5.846,5.845v19.104c0,9.836-8.031,17.867-17.868,17.867H41.011
			c-9.837,0-17.869-8.031-17.869-17.867V69.025c0-9.837,8.032-17.868,17.869-17.868h95.33c9.837,0,17.867,8.031,17.867,17.868
			v19.104c0,3.231,2.614,5.846,5.846,5.846c3.23,0,5.845-2.614,5.845-5.846V69.025c0-16.253-13.259-29.511-29.511-29.511H41.011
			C24.759,39.514,11.5,52.726,11.5,69.025z"/>
		<path d="M194.649,171.958c1.142,1.14,2.614,1.711,4.135,1.711c1.52,0,2.993-0.571,4.134-1.711l39.871-39.871
			c2.281-2.281,2.281-5.94,0-8.221l-39.871-39.871c-2.28-2.281-5.939-2.281-8.221,0s-2.281,5.94,0,8.221l29.938,29.939H115.383
			c-3.232,0-5.846,2.614-5.846,5.845s2.614,5.845,5.846,5.845h109.206l-29.939,29.939
			C192.369,166.018,192.369,169.724,194.649,171.958z"/>
	</g>
</g>
</svg>
