<?xml version="1.0" encoding="utf-8"?>
<!-- Generator: Adobe Illustrator 16.0.0, SVG Export Plug-In . SVG Version: 6.00 Build 0)  -->
<!DOCTYPE svg PUBLIC "-//W3C//DTD SVG 1.1//EN" "http://www.w3.org/Graphics/SVG/1.1/DTD/svg11.dtd">
<svg version="1.1" id="Capa_1" xmlns="http://www.w3.org/2000/svg" xmlns:xlink="http://www.w3.org/1999/xlink" x="0px" y="0px"
	 width="256px" height="256px" viewBox="0 0 256 256" enable-background="new 0 0 256 256" xml:space="preserve">
<g>
	<path d="M131.393,73.212c-32.881,0-59.63,26.748-59.63,59.629c0,32.882,26.749,59.63,59.63,59.63
		c32.882,0,59.631-26.748,59.631-59.63C191.023,99.96,164.274,73.212,131.393,73.212z M131.393,183.953
		c-28.184,0-51.111-22.928-51.111-51.111c0-28.183,22.927-51.111,51.111-51.111s51.111,22.928,51.111,51.111
		C182.504,161.025,159.576,183.953,131.393,183.953z"/>
	<path d="M234.552,107.287h-8.595c-2.193-8.144-5.418-15.938-9.626-23.243l6.074-6.074c2.235-2.236,3.467-5.213,3.467-8.374
		c0-3.164-1.231-6.137-3.467-8.377l-19.394-19.392c-4.471-4.468-12.271-4.477-16.751,0l-6.073,6.073
		c-7.31-4.204-15.1-7.428-23.239-9.622v-8.595c0-6.53-5.311-11.841-11.84-11.841h-27.43c-6.53,0-11.841,5.311-11.841,11.841v8.595
		c-8.14,2.193-15.93,5.418-23.243,9.625l-6.074-6.073c-4.477-4.481-12.279-4.472-16.751,0L40.376,61.223
		c-2.236,2.236-3.467,5.213-3.467,8.378c0,3.16,1.231,6.133,3.467,8.374l6.074,6.074c-4.204,7.301-7.433,15.095-9.622,23.239h-8.595
		c-6.53,0-11.841,5.311-11.841,11.84v27.425c0,6.535,5.311,11.846,11.841,11.846h8.595c2.193,8.14,5.418,15.93,9.625,23.243
		l-6.073,6.074c-2.236,2.236-3.467,5.212-3.467,8.373c0,3.165,1.231,6.138,3.467,8.378l19.393,19.393
		c4.472,4.477,12.275,4.48,16.751,0l6.074-6.073c7.313,4.203,15.104,7.432,23.243,9.626v8.596c0,6.529,5.312,11.84,11.841,11.84
		h27.426c6.529,0,11.84-5.312,11.84-11.84v-8.596c8.14-2.194,15.93-5.418,23.243-9.626l6.074,6.073c4.48,4.48,12.275,4.473,16.751,0
		l19.393-19.393c2.236-2.236,3.467-5.213,3.467-8.378c0-3.161-1.23-6.134-3.467-8.373l-6.073-6.074
		c4.203-7.313,7.432-15.104,9.626-23.243h8.596c6.529,0,11.84-5.311,11.84-11.84v-27.431
		C246.393,112.597,241.081,107.287,234.552,107.287z M237.875,146.558c0,1.831-1.491,3.321-3.323,3.321h-15.299l-0.767,3.292
		c-2.219,9.528-5.958,18.57-11.13,26.881l-1.788,2.871l10.813,10.813c1.3,1.3,1.3,3.407,0,4.702l-19.393,19.393
		c-1.295,1.295-3.402,1.304-4.702,0l-10.813-10.813l-2.871,1.788c-8.306,5.172-17.348,8.915-26.881,11.13l-3.292,0.767v15.299
		c0,1.832-1.49,3.323-3.321,3.323h-27.43c-1.832,0-3.322-1.491-3.322-3.323v-15.299l-3.292-0.767
		c-9.528-2.219-18.571-5.958-26.88-11.13l-2.871-1.788l-10.814,10.813c-1.303,1.304-3.412,1.295-4.702,0l-19.393-19.393
		c-1.299-1.299-1.299-3.406,0-4.702l10.814-10.813l-1.789-2.871c-5.17-8.306-8.915-17.348-11.129-26.881l-0.767-3.292H28.233
		c-1.832,0-3.322-1.49-3.322-3.321v-27.431c0-1.831,1.491-3.322,3.322-3.322h15.299l0.767-3.292
		c2.219-9.533,5.959-18.575,11.129-26.881l1.789-2.871L46.403,71.947c-1.299-1.299-1.299-3.407,0-4.702l19.393-19.393
		c1.295-1.295,3.403-1.303,4.702,0l10.814,10.814l2.871-1.789c8.306-5.17,17.348-8.915,26.88-11.129l3.292-0.767V29.683
		c0-1.832,1.491-3.322,3.322-3.322h27.424c1.837,0,3.327,1.491,3.327,3.322v15.299l3.292,0.767
		c9.528,2.219,18.57,5.959,26.881,11.129l2.871,1.789l10.813-10.814c1.304-1.303,3.412-1.295,4.702,0l19.393,19.393
		c1.3,1.299,1.3,3.407,0,4.702l-10.813,10.814l1.788,2.871c5.172,8.301,8.915,17.344,11.13,26.881l0.767,3.292h15.299
		c1.832,0,3.323,1.491,3.323,3.322V146.558z"/>
	<path d="M131.393,90.25c-23.485,0-42.592,19.107-42.592,42.592c0,23.486,19.107,42.593,42.592,42.593
		c23.486,0,42.593-19.106,42.593-42.593C173.985,109.356,154.879,90.25,131.393,90.25z M131.393,166.916
		c-18.788,0-34.074-15.286-34.074-34.074s15.286-34.074,34.074-34.074c18.788,0,34.074,15.286,34.074,34.074
		S150.181,166.916,131.393,166.916z"/>
</g>
</svg>
