<?xml version="1.0" encoding="utf-8"?>
<!-- Generator: Adobe Illustrator 16.0.0, SVG Export Plug-In . SVG Version: 6.00 Build 0)  -->
<!DOCTYPE svg PUBLIC "-//W3C//DTD SVG 1.1//EN" "http://www.w3.org/Graphics/SVG/1.1/DTD/svg11.dtd">
<svg version="1.1" id="Capa_1" xmlns="http://www.w3.org/2000/svg" xmlns:xlink="http://www.w3.org/1999/xlink" x="0px" y="0px"
	 width="256px" height="256px" viewBox="0 0 256 256" enable-background="new 0 0 256 256" xml:space="preserve">
<g>
	<path d="M53.333,102.4H160c2.355,0,4.267-1.912,4.267-4.267s-1.911-4.267-4.267-4.267H53.333c-2.355,0-4.267,1.912-4.267,4.267
		S50.978,102.4,53.333,102.4z"/>
	<path d="M53.333,68.267H96c2.355,0,4.267-1.912,4.267-4.267S98.355,59.733,96,59.733H53.333c-2.355,0-4.267,1.912-4.267,4.267
		S50.978,68.267,53.333,68.267z"/>
	<path d="M53.333,136.533H160c2.355,0,4.267-1.911,4.267-4.267c0-2.354-1.911-4.267-4.267-4.267H53.333
		c-2.355,0-4.267,1.912-4.267,4.267C49.067,134.622,50.978,136.533,53.333,136.533z"/>
	<path d="M125.867,162.133H53.333c-2.355,0-4.267,1.912-4.267,4.268s1.911,4.266,4.267,4.266h72.533c2.355,0,4.266-1.91,4.266-4.266
		S128.222,162.133,125.867,162.133z"/>
	<path d="M113.067,196.267H53.333c-2.355,0-4.267,1.911-4.267,4.267s1.911,4.267,4.267,4.267h59.733
		c2.355,0,4.267-1.911,4.267-4.267S115.422,196.267,113.067,196.267z"/>
	<path d="M206.934,146.615V62.233L144.699,0H6.4v256h187.733c30.584,0,55.467-24.883,55.467-55.467
		C249.6,174.361,231.355,152.418,206.934,146.615z M147.2,14.566l45.167,45.167H147.2V14.566z M164.6,247.467H14.933V8.533h123.733
		v59.733H198.4v76.987c-1.459-0.123-2.876-0.188-4.268-0.188c-30.583,0-55.467,24.883-55.467,55.467
		c0,1.703,0.107,3.379,0.257,5.048c0.034,0.388,0.072,0.772,0.115,1.16c0.183,1.63,0.418,3.243,0.737,4.825
		c0.039,0.188,0.09,0.371,0.129,0.56c0.307,1.442,0.678,2.858,1.096,4.258c0.107,0.351,0.205,0.704,0.316,1.05
		c0.482,1.502,1.02,2.979,1.621,4.425c0.115,0.272,0.243,0.537,0.358,0.806c0.55,1.264,1.147,2.496,1.788,3.708
		c0.153,0.29,0.299,0.585,0.456,0.875c0.747,1.353,1.549,2.671,2.407,3.955c0.195,0.294,0.4,0.576,0.602,0.866
		c0.78,1.127,1.6,2.223,2.457,3.285c0.162,0.201,0.316,0.41,0.482,0.61c0.985,1.187,2.026,2.321,3.105,3.417
		c0.266,0.27,0.533,0.529,0.807,0.794c1.045,1.021,2.116,2.01,3.238,2.944c0.098,0.085,0.192,0.175,0.295,0.256
		c1.203,0.99,2.461,1.916,3.75,2.808c0.312,0.218,0.627,0.427,0.943,0.636C163.955,247.027,164.271,247.258,164.6,247.467z
		 M194.133,247.467c-25.877,0-46.933-21.057-46.933-46.934s21.056-46.934,46.933-46.934c1.332,0,2.646,0.09,3.951,0.201
		c1.242,0.119,2.526,0.281,3.879,0.508l1.891,0.315c21.227,4.493,37.213,23.364,37.213,45.909
		C241.066,226.41,220.011,247.467,194.133,247.467z"/>
	<path d="M216.23,176.764l-23.877,34.305l-16.849-13.833c-1.817-1.497-4.51-1.229-6.003,0.593c-1.498,1.822-1.233,4.51,0.593,6.004
		l20.421,16.764c0.768,0.627,1.723,0.969,2.705,0.969c0.191,0,0.388-0.014,0.584-0.039c1.178-0.166,2.236-0.811,2.918-1.787
		l26.514-38.098c1.344-1.933,0.87-4.596-1.066-5.939C220.232,174.349,217.578,174.831,216.23,176.764z"/>
</g>
</svg>
