<?xml version="1.0" encoding="utf-8"?>
<!-- Generator: Adobe Illustrator 16.0.0, SVG Export Plug-In . SVG Version: 6.00 Build 0)  -->
<!DOCTYPE svg PUBLIC "-//W3C//DTD SVG 1.1//EN" "http://www.w3.org/Graphics/SVG/1.1/DTD/svg11.dtd">
<svg version="1.1" id="Capa_1" xmlns="http://www.w3.org/2000/svg" xmlns:xlink="http://www.w3.org/1999/xlink" x="0px" y="0px"
	 width="512px" height="512px" viewBox="0 0 512 512" enable-background="new 0 0 512 512" xml:space="preserve">
<g>
	<path fill="#EA2828" d="M300.895,151.342c-9.004,0-16.299,7.295-16.299,16.299v182.718c0,9.004,7.295,16.299,16.299,16.299
		s16.3-7.295,16.3-16.299V167.641C317.193,158.637,309.897,151.342,300.895,151.342z"/>
	<path fill="#EA2828" d="M205.105,151.342c-9.004,0-16.299,7.295-16.299,16.299v182.718c0,9.004,7.295,16.299,16.299,16.299
		s16.3-7.295,16.3-16.299V167.641C221.405,158.637,214.107,151.342,205.105,151.342z"/>
	<path fill="#EA2828" d="M256,0C114.842,0,0,114.842,0,256s114.842,256,256,256s256-114.842,256-256S397.158,0,256,0z M256,494.934
		C124.254,494.934,17.067,387.746,17.067,256S124.254,17.066,256,17.066S494.934,124.254,494.934,256S387.746,494.934,256,494.934z"
		/>
</g>
</svg>
