<?xml version="1.0" encoding="utf-8"?>
<!-- Generator: Adobe Illustrator 16.0.0, SVG Export Plug-In . SVG Version: 6.00 Build 0)  -->
<!DOCTYPE svg PUBLIC "-//W3C//DTD SVG 1.1//EN" "http://www.w3.org/Graphics/SVG/1.1/DTD/svg11.dtd">
<svg version="1.1" id="Layer_1" xmlns="http://www.w3.org/2000/svg" xmlns:xlink="http://www.w3.org/1999/xlink" x="0px" y="0px"
	 width="598.104px" height="599.999px" viewBox="-1161.204 -345.56 598.104 599.999"
	 enable-background="new -1161.204 -345.56 598.104 599.999" xml:space="preserve">
<g>
	<path d="M-640.328-205.298l-135.646-78.31L-889.27-87.333h193.125l59.712-103.383
		C-633.569-195.833-635.296-202.294-640.328-205.298z"/>
	<path d="M-913.921-87.333l119.441-206.954l-36.955-21.33L-963.276-87.333H-913.921z"/>
	<path d="M-895.413-340.233l-146.042,252.899h53.517l137.991-238.965l-30.895-17.835
		C-885.941-347.07-892.461-345.328-895.413-340.233z"/>
	<path d="M-584.459,136.956h-117.484c-29.481-0.036-53.371-23.922-53.402-53.402V62.192c0.031-29.475,23.921-53.366,53.402-53.402
		h117.484v-85.442c0-17.695-14.347-32.042-32.041-32.042h-42.639l-12.344,21.361h44.302v21.36h-491.3v-21.36h52.333l12.334-21.361
		h-75.348c-17.699,0-32.041,14.347-32.041,32.042v299.052c0,17.695,14.342,32.041,32.041,32.041H-616.5
		c17.694,0,32.041-14.346,32.041-32.041V136.956z"/>
	<path d="M-563.099,30.152h-138.845c-17.701,0-32.041,14.347-32.041,32.04v21.361c0,17.694,14.34,32.041,32.041,32.041h138.845
		V30.152z M-691.264,104.915c-17.699,0-32.041-14.348-32.041-32.041c0-17.694,14.342-32.041,32.041-32.041
		c17.695,0,32.041,14.347,32.041,32.041C-659.223,90.567-673.569,104.915-691.264,104.915z"/>
	<path d="M-680.584,72.874c0,5.896-4.781,10.68-10.68,10.68s-10.68-4.783-10.68-10.68c0-5.898,4.781-10.682,10.68-10.682
		S-680.584,66.975-680.584,72.874z"/>
</g>
</svg>
