<?xml version="1.0" encoding="utf-8"?>
<!-- Generator: Adobe Illustrator 15.1.0, SVG Export Plug-In  -->
<!DOCTYPE svg PUBLIC "-//W3C//DTD SVG 1.1//EN" "http://www.w3.org/Graphics/SVG/1.1/DTD/svg11.dtd" [
	<!ENTITY ns_flows "http://ns.adobe.com/Flows/1.0/">
]>
<svg version="1.1"
	 xmlns="http://www.w3.org/2000/svg" xmlns:xlink="http://www.w3.org/1999/xlink" xmlns:a="http://ns.adobe.com/AdobeSVGViewerExtensions/3.0/"
	 x="0px" y="0px" width="400px" height="110px" viewBox="-6.868 -3.407 400 110" enable-background="new -6.868 -3.407 400 110"
	 xml:space="preserve">
<defs>
</defs>
<path id="path14519_1_" fill="#263A7F" d="M213.379,27.873h-14.502c-1.387,0-2.685,0.687-3.461,1.837L175.41,59.172l-8.476-28.313
	c-0.533-1.771-2.164-2.987-4.014-2.987h-14.252c-1.722,0-2.933,1.694-2.377,3.321l15.966,46.873l-15.018,21.19
	c-1.178,1.664,0.012,3.963,2.051,3.963h14.485c1.372,0,2.658-0.671,3.442-1.798l48.225-69.607
	C216.596,30.149,215.405,27.873,213.379,27.873 M116.429,55.954c-1.395,8.243-7.937,13.78-16.285,13.78
	c-4.184,0-7.536-1.349-9.688-3.897c-2.133-2.524-2.938-6.125-2.261-10.131c1.298-8.174,7.948-13.884,16.168-13.884
	c4.098,0,7.424,1.359,9.619,3.931C116.192,48.345,117.063,51.965,116.429,55.954 M136.537,27.872h-14.428
	c-1.236,0-2.288,0.897-2.482,2.121l-0.633,4.033l-1.006-1.461c-3.127-4.534-10.092-6.053-17.046-6.053
	c-15.939,0-29.555,12.082-32.205,29.023c-1.379,8.453,0.579,16.529,5.373,22.165c4.401,5.18,10.683,7.336,18.169,7.336
	c12.85,0,19.975-8.252,19.975-8.252l-0.645,4.009c-0.241,1.522,0.936,2.902,2.482,2.902h12.991c2.063,0,3.814-1.496,4.136-3.531
	l7.801-49.39C139.26,29.251,138.079,27.872,136.537,27.872 M49.957,28.219c-1.646,10.815-9.906,10.815-17.897,10.815h-4.544
	l3.188-20.192c0.191-1.22,1.244-2.118,2.479-2.118h2.086c5.438,0,10.574,0,13.223,3.096C50.078,21.673,50.556,24.423,49.957,28.219
	 M46.48,0H16.351c-2.063,0-3.814,1.5-4.137,3.535L0.031,80.794c-0.241,1.523,0.936,2.902,2.479,2.902h14.389
	c2.059,0,3.811-1.499,4.133-3.532l3.291-20.845c0.318-2.035,2.074-3.535,4.133-3.535h9.533c19.847,0,31.303-9.603,34.295-28.642
	c1.347-8.32,0.053-14.862-3.842-19.442C64.155,2.665,56.561,0,46.48,0"/>
<path id="path14523_1_" fill="#179BD7" d="M368.442,2.124l-12.366,78.672c-0.24,1.522,0.938,2.902,2.479,2.902h12.438
	c2.06,0,3.815-1.5,4.134-3.535l12.193-77.259c0.241-1.522-0.937-2.902-2.482-2.902h-13.915
	C369.685,0.002,368.633,0.899,368.442,2.124 M331.329,55.954c-1.394,8.243-7.936,13.78-16.283,13.78
	c-4.185,0-7.537-1.349-9.688-3.897c-2.137-2.524-2.938-6.125-2.261-10.131c1.296-8.174,7.947-13.884,16.167-13.884
	c4.1,0,7.425,1.359,9.619,3.931c2.21,2.591,3.081,6.211,2.448,10.201 M351.437,27.872H337.01c-1.235,0-2.289,0.897-2.483,2.121
	l-0.633,4.033l-1.01-1.461c-3.124-4.534-10.089-6.053-17.042-6.053c-15.939,0-29.556,12.082-32.204,29.023
	c-1.379,8.453,0.578,16.529,5.372,22.165c4.402,5.18,10.683,7.336,18.169,7.336c12.852,0,19.976-8.252,19.976-8.252l-0.645,4.009
	c-0.242,1.522,0.936,2.902,2.481,2.902h12.991c2.063,0,3.814-1.496,4.136-3.531l7.802-49.39
	C354.16,29.251,352.979,27.872,351.437,27.872 M264.858,28.219c-1.648,10.815-9.906,10.815-17.897,10.815h-4.546l3.189-20.192
	c0.19-1.22,1.244-2.118,2.479-2.118h2.085c5.439,0,10.574,0,13.225,3.096C264.978,21.673,265.456,24.423,264.858,28.219 M261.38,0
	h-30.13c-2.063,0-3.814,1.5-4.136,3.535l-12.184,77.259c-0.241,1.523,0.94,2.902,2.479,2.902h15.461c1.441,0,2.67-1.049,2.895-2.471
	l3.457-21.906c0.318-2.035,2.074-3.535,4.135-3.535h9.532c19.847,0,31.303-9.603,34.294-28.642
	c1.349-8.32,0.055-14.862-3.841-19.442C279.056,2.665,271.461,0,261.38,0"/>
</svg>
