<?xml version="1.0" encoding="utf-8"?>
<!-- Generator: Adobe Illustrator 16.0.0, SVG Export Plug-In . SVG Version: 6.00 Build 0)  -->
<!DOCTYPE svg PUBLIC "-//W3C//DTD SVG 1.1//EN" "http://www.w3.org/Graphics/SVG/1.1/DTD/svg11.dtd">
<svg version="1.1" id="Capa_1" xmlns="http://www.w3.org/2000/svg" xmlns:xlink="http://www.w3.org/1999/xlink" x="0px" y="0px"
	 width="60px" height="65.833px" viewBox="0 0 60 65.833" enable-background="new 0 0 60 65.833" xml:space="preserve">
<path  d="M58.22,49.502h-2.161v-9.209c0-1.964-1.598-3.562-3.561-3.562H32.67v-7.198c0-0.071-0.004-0.14-0.01-0.209
	h9.445c1.473,0,2.672-1.198,2.672-2.671V7.489c0-1.473-1.199-2.67-2.672-2.67H17.894c-1.473,0-2.671,1.198-2.671,2.67v19.164
	c0,1.473,1.198,2.671,2.671,2.671h9.446c-0.005,0.069-0.01,0.139-0.01,0.209v7.198H7.502c-1.963,0-3.561,1.598-3.561,3.562v9.209
	H1.78C0.799,49.502,0,50.3,0,51.281v8.12c0,0.981,0.799,1.78,1.78,1.78h9.664c0.981,0,1.78-0.799,1.78-1.78v-8.12
	c0-0.981-0.799-1.779-1.78-1.779H9.283v-7.43H27.33v7.43h-2.162c-0.981,0-1.78,0.798-1.78,1.779v8.12c0,0.981,0.799,1.78,1.78,1.78
	h9.664c0.981,0,1.78-0.799,1.78-1.78v-8.12c0-0.981-0.799-1.779-1.78-1.779H32.67v-7.43h18.047v7.43h-2.161
	c-0.981,0-1.78,0.798-1.78,1.779v8.12c0,0.981,0.799,1.78,1.78,1.78h9.663c0.982,0,1.781-0.799,1.781-1.78v-8.12
	C60,50.3,59.201,49.502,58.22,49.502z M11.444,60.291L11.444,60.291L11.444,60.291L11.444,60.291z M34.832,60.291L34.832,60.291
	L34.832,60.291L34.832,60.291z M58.22,60.291L58.22,60.291L58.22,60.291L58.22,60.291z"/>
</svg>
