<?xml version="1.0" encoding="utf-8"?>
<!-- Generator: Adobe Illustrator 16.0.0, SVG Export Plug-In . SVG Version: 6.00 Build 0)  -->
<!DOCTYPE svg PUBLIC "-//W3C//DTD SVG 1.1//EN" "http://www.w3.org/Graphics/SVG/1.1/DTD/svg11.dtd">
<svg version="1.1" id="Capa_1" xmlns="http://www.w3.org/2000/svg" xmlns:xlink="http://www.w3.org/1999/xlink" x="0px" y="0px"
	 width="512px" height="512px" viewBox="0 0 512 512" enable-background="new 0 0 512 512" xml:space="preserve">
<path fill="#29B3A7" d="M388.805,248.952l-187.734-128c-2.62-1.775-5.999-1.971-8.798-0.495c-2.79,1.476-4.54,4.377-4.54,7.543v256
	c0,3.166,1.75,6.067,4.548,7.543c1.246,0.666,2.62,0.99,3.985,0.99c1.681,0,3.362-0.504,4.804-1.484l187.734-128
	c2.329-1.588,3.729-4.225,3.729-7.049C392.533,253.175,391.134,250.539,388.805,248.952z M204.8,367.846V144.154L368.854,256
	L204.8,367.846z"/>
<path fill="#29B3A7" d="M256,0C114.842,0,0,114.842,0,256s114.842,256,256,256s256-114.842,256-256S397.158,0,256,0z M256,494.934
	C124.254,494.934,17.067,387.746,17.067,256S124.254,17.066,256,17.066S494.934,124.254,494.934,256S387.746,494.934,256,494.934z"
	/>
</svg>
