<?xml version="1.0" encoding="utf-8"?>
<!-- Generator: Adobe Illustrator 16.0.0, SVG Export Plug-In . SVG Version: 6.00 Build 0)  -->
<!DOCTYPE svg PUBLIC "-//W3C//DTD SVG 1.1//EN" "http://www.w3.org/Graphics/SVG/1.1/DTD/svg11.dtd">
<svg version="1.1" id="Capa_1" xmlns="http://www.w3.org/2000/svg" xmlns:xlink="http://www.w3.org/1999/xlink" x="0px" y="0px"
	 width="1600px" height="1000px" viewBox="0 0 1600 1000" enable-background="new 0 0 1600 1000" xml:space="preserve">
<rect x="661.306" y="250.295" fill="#FFFFFF" width="402.04" height="519.052"/>
<path fill="#10A4EA" d="M800,78.008c-232.687,0-421.992,189.306-421.992,421.992S567.313,921.992,800,921.992
	S1221.992,732.687,1221.992,500S1032.687,78.008,800,78.008z M1018.916,511.619L709.455,722.615
	c-2.378,1.617-5.149,2.447-7.92,2.447c-2.25,0-4.515-0.534-6.569-1.632c-4.614-2.434-7.497-7.216-7.497-12.435V289.004
	c0-5.219,2.883-10.001,7.497-12.435c4.614-2.448,10.184-2.11,14.503,0.816l309.461,210.996c3.826,2.616,6.133,6.963,6.133,11.619
	C1025.063,504.656,1022.756,509.003,1018.916,511.619z"/>
</svg>
