<?xml version="1.0" encoding="iso-8859-1"?>
<!-- Generator: Adobe Illustrator 19.1.0, SVG Export Plug-In . SVG Version: 6.00 Build 0)  -->
<svg version="1.1" id="Capa_1" xmlns="http://www.w3.org/2000/svg" xmlns:xlink="http://www.w3.org/1999/xlink" x="0px" y="0px"
	 viewBox="0 0 284.844 284.844" style="enable-background:new 0 0 284.844 284.844;" xml:space="preserve">
<g>
	<g>
		<path d="M199.174,284.844c-7.725,0-14.987-3.008-20.45-8.471L65.232,162.882c-5.476-5.476-8.483-12.738-8.483-20.463
			s3.008-14.987,8.471-20.45L178.724,8.471C184.187,3.008,191.443,0,199.174,0s14.987,3.008,20.45,8.471
			c5.469,5.463,8.471,12.725,8.471,20.457s-3.014,14.994-8.471,20.45l-93.054,93.048l93.054,93.048
			c5.463,5.463,8.471,12.719,8.471,20.45s-3.014,14.987-8.471,20.45C214.161,281.836,206.893,284.844,199.174,284.844z
			 M74.121,153.588l0.199,0.193l113.498,113.498c6.073,6.073,16.646,6.073,22.719,0c3.04-3.04,4.704-7.07,4.704-11.363
			c0-4.293-1.671-8.323-4.704-11.363L108.395,142.425L210.537,40.29c3.04-3.033,4.704-7.07,4.704-11.363s-1.671-8.329-4.704-11.369
			c-6.073-6.067-16.645-6.067-22.719,0L74.313,131.056c-3.033,3.033-4.704,7.07-4.704,11.356
			C69.603,146.622,71.203,150.574,74.121,153.588z"/>
	</g>
</g>
<g>
</g>
<g>
</g>
<g>
</g>
<g>
</g>
<g>
</g>
<g>
</g>
<g>
</g>
<g>
</g>
<g>
</g>
<g>
</g>
<g>
</g>
<g>
</g>
<g>
</g>
<g>
</g>
<g>
</g>
</svg>
