<?xml version="1.0" encoding="utf-8"?>
<!-- Generator: Adobe Illustrator 16.0.0, SVG Export Plug-In . SVG Version: 6.00 Build 0)  -->
<!DOCTYPE svg PUBLIC "-//W3C//DTD SVG 1.1//EN" "http://www.w3.org/Graphics/SVG/1.1/DTD/svg11.dtd">
<svg version="1.1" id="Capa_1" xmlns="http://www.w3.org/2000/svg" xmlns:xlink="http://www.w3.org/1999/xlink" x="0px" y="0px"
	 width="256px" height="256px" viewBox="0 0 256 256" enable-background="new 0 0 256 256" xml:space="preserve">
<g>
	<g>
		<path d="M128,0C57.422,0,0,57.422,0,128s57.422,128,128,128s128-57.422,128-128S198.578,0,128,0z M128,243.211
			C64.47,243.211,12.789,191.53,12.789,128S64.47,12.789,128,12.789S243.211,64.47,243.211,128S191.53,243.211,128,243.211z"/>
		<path d="M183.596,121.579H87.856l25.058-25.058c2.506-2.506,2.506-6.525,0-9.03c-1.254-1.253-2.871-1.88-4.542-1.88
			s-3.289,0.627-4.542,1.88l-35.967,35.968c-2.506,2.505-2.506,6.525,0,9.03l35.967,35.968c2.506,2.506,6.525,2.506,9.031,0
			s2.506-6.525,0-9.031l-25.057-25.057h95.791c3.55,0,6.421-2.871,6.42-6.421C190.016,124.398,187.145,121.579,183.596,121.579z"/>
	</g>
</g>
</svg>
