<svg height="511pt" viewBox="1 -57 511.9995 511" width="511pt" xmlns="http://www.w3.org/2000/svg"><path d="m353.453125 79.570312h-79.78125c-4.183594 0-7.574219 3.390626-7.574219 7.574219 0 4.183594 3.390625 7.574219 7.574219 7.574219h79.78125c79.070313 0 143.398437 64.328125 143.398437 143.398438 0 79.070312-64.328124 143.402343-143.398437 143.402343h-170.667969v-35.347656h85.964844c4.179688 0 7.574219-3.390625 7.574219-7.570313 0-4.183593-3.394531-7.574218-7.574219-7.574218h-93.539062c-4.183594 0-7.574219 3.390625-7.574219 7.574218v50.492188c0 4.183594 3.390625 7.574219 7.574219 7.574219h178.242187c87.421875 0 158.546875-71.125 158.546875-158.550781 0-87.421876-71.125-158.546876-158.546875-158.546876zm0 0"/><path d="m122.394531 145.210938h231.058594c51.226563 0 92.90625 41.679687 92.90625 92.90625 0 51.230468-41.679687 92.90625-92.90625 92.90625h-48.980469c-4.183594 0-7.574218 3.390624-7.574218 7.574218s3.390624 7.574219 7.574218 7.574219h48.980469c59.582031 0 108.054687-48.472656 108.054687-108.054687 0-59.582032-48.472656-108.054688-108.054687-108.054688h-249.34375c-3.0625 0-5.824219 1.84375-6.996094 4.675781s-.527343 6.089844 1.640625 8.253907l38.007813 38.007812-24.988281 24.992188-93.496094-93.601563 93.496094-93.601563 24.988281 24.988282-38.007813 38.007812c-2.167968 2.167969-2.8125 5.425782-1.640625 8.253906 1.171875 2.832032 3.933594 4.675782 6.996094 4.675782h134.050781c4.183594 0 7.574219-3.390625 7.574219-7.570313 0-4.183593-3.390625-7.574219-7.574219-7.574219h-115.765625l30.433594-30.4375c2.960937-2.957031 2.960937-7.753906 0-10.710937l-35.703125-35.703125c-1.421875-1.421875-3.347656-2.21875-5.355469-2.21875h-.003906c-2.007813 0-3.933594.800781-5.355469 2.222656l-104.195312 104.316406c-2.953125 2.957032-2.953125 7.746094 0 10.703126l104.195312 104.316406c1.421875 1.421875 3.347656 2.21875 5.355469 2.222656h.003906c2.007813 0 3.933594-.800781 5.355469-2.21875l35.703125-35.703125c1.421875-1.421875 2.21875-3.347656 2.21875-5.355469 0-2.011718-.796875-3.9375-2.21875-5.355468zm0 0"/></svg>