<?xml version="1.0" encoding="utf-8"?>
<!-- Generator: Adobe Illustrator 16.0.0, SVG Export Plug-In . SVG Version: 6.00 Build 0)  -->
<!DOCTYPE svg PUBLIC "-//W3C//DTD SVG 1.1//EN" "http://www.w3.org/Graphics/SVG/1.1/DTD/svg11.dtd">
<svg version="1.1" id="Layer_1" xmlns="http://www.w3.org/2000/svg" xmlns:xlink="http://www.w3.org/1999/xlink" x="0px" y="0px"
	 width="256px" height="256px" viewBox="0 0 256 256" enable-background="new 0 0 256 256" xml:space="preserve">
<g>
	<g>
		<rect x="19.494" y="125.289" width="124.759" height="7.798"/>
	</g>
</g>
<g>
	<g>
		<rect x="19.494" y="156.289" width="124.759" height="7.798"/>
	</g>
</g>
<g>
	<g>
		<rect x="19.494" y="186.479" width="98.768" height="7.798"/>
	</g>
</g>
<g>
	<path d="M214.259,138.064l-4.712,2.196l-10.254-21.99c24.605-16.952,34.158-49.751,21.119-77.715v0
		c-14.537-31.173-51.726-44.709-82.898-30.172c-20.963,9.776-33.949,29.793-35.788,51.337H45.485v7.797h56.068
		c0.317,7.873,2.141,15.806,5.62,23.393h-87.68v7.797h91.951c10.156,15.782,26.668,25.745,44.504,28.06v114.895H44.186v-36.389
		H7.797V43.526h93.955v-7.797H0v177.059l38.672,38.672h125.075V129.291c0.075,0,0.149,0.004,0.225,0.004
		c5.487,0,11.026-0.729,16.478-2.233l7.507,16.098l7.067-3.296l-7.166-15.365c0.797-0.332,1.592-0.677,2.382-1.044
		c0.788-0.368,1.563-0.754,2.331-1.151l9.91,21.253l-16.489,7.689l41.741,89.515L256,227.578L214.259,138.064z M36.388,238.147
		L13.311,215.07h23.078V238.147z M186.943,116.387c-27.277,12.72-59.816,0.876-72.536-26.401
		c-12.719-27.277-0.876-59.816,26.401-72.536c7.44-3.47,15.27-5.111,22.984-5.111c20.566,0,40.302,11.675,49.552,31.512
		C226.064,71.128,214.221,103.668,186.943,116.387z M224.913,216.264l-28.56-61.246l14.134-6.591l28.56,61.246L224.913,216.264z
		 M228.209,223.33l14.133-6.59l3.295,7.066l-14.133,6.591L228.209,223.33z"/>
</g>
</svg>
