<?xml version="1.0" encoding="utf-8"?>
<!-- Generator: Adobe Illustrator 16.0.0, SVG Export Plug-In . SVG Version: 6.00 Build 0)  -->
<!DOCTYPE svg PUBLIC "-//W3C//DTD SVG 1.1//EN" "http://www.w3.org/Graphics/SVG/1.1/DTD/svg11.dtd">
<svg version="1.1" id="Capa_1" xmlns="http://www.w3.org/2000/svg" xmlns:xlink="http://www.w3.org/1999/xlink" x="0px" y="0px"
	 width="256px" height="256px" viewBox="0 0 256 256" enable-background="new 0 0 256 256" xml:space="preserve">
<g>
	<path fill="#3B6F85" d="M127.393,66.804c-35.311,0-64.037,28.725-64.037,64.037s28.726,64.037,64.037,64.037
		c35.313,0,64.038-28.726,64.038-64.037S162.703,66.804,127.393,66.804z M127.393,185.73c-30.267,0-54.888-24.622-54.888-54.889
		c0-30.266,24.621-54.889,54.888-54.889c30.268,0,54.889,24.623,54.889,54.889C182.281,161.108,157.659,185.73,127.393,185.73z"/>
	<path fill="#3B6F85" d="M238.176,103.398h-9.229c-2.355-8.746-5.818-17.116-10.338-24.961l6.522-6.522
		c2.401-2.402,3.724-5.599,3.724-8.993c0-3.398-1.322-6.591-3.724-8.997L204.305,33.1c-4.802-4.799-13.179-4.808-17.99,0
		l-6.521,6.521c-7.851-4.515-16.217-7.977-24.957-10.333v-9.23c0-7.013-5.704-12.716-12.716-12.716h-29.457
		c-7.013,0-12.717,5.704-12.717,12.716v9.23c-8.741,2.355-17.107,5.818-24.96,10.336l-6.523-6.521
		c-4.808-4.812-13.187-4.803-17.989,0L29.649,53.93c-2.401,2.401-3.723,5.598-3.723,8.997c0,3.393,1.322,6.586,3.723,8.993
		l6.523,6.523c-4.515,7.841-7.982,16.211-10.333,24.957h-9.231c-7.012,0-12.716,5.704-12.716,12.715v29.451
		c0,7.019,5.704,12.722,12.716,12.722h9.231c2.354,8.742,5.818,17.108,10.336,24.962l-6.522,6.522
		c-2.401,2.401-3.723,5.597-3.723,8.992c0,3.398,1.322,6.591,3.723,8.997l20.827,20.825c4.803,4.809,13.182,4.812,17.989,0
		l6.523-6.521c7.854,4.514,16.22,7.98,24.96,10.337v9.231c0,7.012,5.705,12.716,12.716,12.716h29.453
		c7.012,0,12.716-5.705,12.716-12.716v-9.231c8.741-2.356,17.107-5.818,24.961-10.337l6.523,6.521
		c4.811,4.812,13.182,4.805,17.988,0l20.826-20.825c2.401-2.402,3.724-5.599,3.724-8.997c0-3.396-1.32-6.588-3.724-8.992
		l-6.521-6.522c4.514-7.854,7.98-16.221,10.337-24.962h9.232c7.011,0,12.715-5.703,12.715-12.715v-29.458
		C250.893,109.101,245.188,103.398,238.176,103.398z M241.745,145.572c0,1.965-1.602,3.565-3.569,3.565h-16.43l-0.823,3.535
		c-2.382,10.232-6.399,19.943-11.953,28.868l-1.919,3.083l11.611,11.612c1.397,1.396,1.397,3.658,0,5.049l-20.826,20.827
		c-1.391,1.391-3.653,1.4-5.05,0L181.174,210.5l-3.083,1.921c-8.92,5.554-18.63,9.573-28.868,11.951l-3.534,0.824v16.43
		c0,1.968-1.601,3.569-3.567,3.569h-29.457c-1.968,0-3.568-1.602-3.568-3.569v-16.43l-3.536-0.824
		c-10.232-2.383-19.943-6.397-28.866-11.951l-3.083-1.921l-11.613,11.612c-1.399,1.4-3.664,1.391-5.05,0l-20.826-20.827
		c-1.395-1.395-1.395-3.656,0-5.049l11.613-11.612l-1.921-3.083c-5.553-8.92-9.574-18.63-11.952-28.868l-0.823-3.535H16.608
		c-1.967,0-3.567-1.601-3.567-3.565v-29.459c0-1.966,1.601-3.567,3.567-3.567h16.43l0.823-3.536
		c2.383-10.238,6.399-19.948,11.952-28.868l1.921-3.083L36.121,65.446c-1.395-1.395-1.395-3.659,0-5.049L56.947,39.57
		c1.391-1.391,3.655-1.4,5.05,0L73.61,51.184l3.083-1.921c8.919-5.552,18.63-9.574,28.866-11.952l3.536-0.824V20.058
		c0-1.967,1.601-3.567,3.567-3.567h29.452c1.972,0,3.572,1.601,3.572,3.567v16.43l3.536,0.824
		c10.231,2.383,19.942,6.399,28.868,11.952l3.083,1.921l11.611-11.613c1.4-1.399,3.665-1.391,5.049,0l20.827,20.826
		c1.396,1.395,1.396,3.659,0,5.05l-11.612,11.613l1.921,3.083c5.554,8.915,9.573,18.626,11.951,28.868l0.824,3.536h16.43
		c1.968,0,3.569,1.601,3.569,3.567L241.745,145.572L241.745,145.572z"/>
	<path fill="#3B6F85" d="M127.393,85.102c-25.22,0-45.74,20.52-45.74,45.74c0,25.222,20.52,45.741,45.74,45.741
		c25.222,0,45.741-20.519,45.741-45.741C173.132,105.62,152.614,85.102,127.393,85.102z M127.393,167.435
		c-20.176,0-36.592-16.416-36.592-36.593c0-20.176,16.416-36.592,36.592-36.592c20.178,0,36.593,16.416,36.593,36.592
		C163.985,151.019,147.57,167.435,127.393,167.435z"/>
</g>
</svg>
