<?xml version="1.0" encoding="utf-8"?>
<!-- Generator: Adobe Illustrator 16.0.0, SVG Export Plug-In . SVG Version: 6.00 Build 0)  -->
<!DOCTYPE svg PUBLIC "-//W3C//DTD SVG 1.1//EN" "http://www.w3.org/Graphics/SVG/1.1/DTD/svg11.dtd">
<svg version="1.1" id="Layer_1" xmlns="http://www.w3.org/2000/svg" xmlns:xlink="http://www.w3.org/1999/xlink" x="0px" y="0px"
	 width="175px" height="176px" viewBox="0 0 175 176" enable-background="new 0 0 175 176" xml:space="preserve">
<g>
	<path d="M83.001,48.589c-21.73,0-39.408,17.677-39.408,39.408c0,21.731,17.678,39.408,39.408,39.408
		c21.73,0,39.408-17.677,39.408-39.408C122.409,66.267,104.73,48.589,83.001,48.589z M83.001,121.775
		c-18.626,0-33.778-15.152-33.778-33.778c0-18.625,15.152-33.778,33.778-33.778c18.627,0,33.778,15.153,33.778,33.778
		C116.779,106.623,101.626,121.775,83.001,121.775z"/>
	<path d="M151.177,71.109h-5.68c-1.449-5.382-3.58-10.533-6.361-15.361l4.014-4.013c1.478-1.479,2.292-3.447,2.292-5.534
		c0-2.091-0.813-4.056-2.292-5.538l-12.815-12.815c-2.955-2.953-8.111-2.959-11.072,0l-4.015,4.012
		c-4.829-2.778-9.979-4.909-15.355-6.358v-5.68c0-4.316-3.51-7.826-7.826-7.826H73.937c-4.316,0-7.825,3.51-7.825,7.826v5.68
		c-5.379,1.449-10.528,3.58-15.36,6.361l-4.014-4.013c-2.959-2.961-8.115-2.956-11.071,0L22.85,40.667
		c-1.477,1.478-2.291,3.445-2.291,5.536c0,2.089,0.814,4.053,2.291,5.535l4.014,4.014c-2.778,4.825-4.912,9.976-6.358,15.358h-5.68
		C10.51,71.109,7,74.619,7,78.934v18.124c0,4.32,3.51,7.829,7.825,7.829h5.681c1.448,5.38,3.58,10.529,6.359,15.36l-4.012,4.014
		c-1.478,1.479-2.292,3.445-2.292,5.533c0,2.093,0.813,4.057,2.292,5.537l12.816,12.816c2.956,2.959,8.113,2.961,11.07,0
		l4.014-4.015c4.833,2.778,9.982,4.912,15.36,6.362v5.68c0,4.315,3.511,7.826,7.825,7.826h18.125c4.316,0,7.825-3.511,7.825-7.826
		v-5.68c5.379-1.45,10.527-3.58,15.36-6.362l4.014,4.015c2.96,2.961,8.114,2.957,11.071,0l12.817-12.816
		c1.476-1.479,2.29-3.444,2.29-5.537c0-2.088-0.813-4.054-2.29-5.533l-4.015-4.014c2.778-4.831,4.911-9.981,6.363-15.36h5.68
		c4.313,0,7.824-3.509,7.824-7.824V78.935C159.002,74.619,155.49,71.109,151.177,71.109z M153.373,97.063
		c0,1.209-0.986,2.194-2.196,2.194h-10.112l-0.506,2.175c-1.465,6.297-3.938,12.272-7.354,17.765l-1.183,1.896l7.146,7.146
		c0.858,0.857,0.858,2.251,0,3.108l-12.816,12.814c-0.855,0.857-2.248,0.862-3.107,0l-7.146-7.145l-1.897,1.181
		c-5.488,3.42-11.464,5.892-17.765,7.356l-2.174,0.507v10.111c0,1.21-0.986,2.195-2.195,2.195H73.938
		c-1.211,0-2.195-0.987-2.195-2.195v-10.111l-2.176-0.507c-6.296-1.467-12.272-3.937-17.764-7.356l-1.896-1.181l-7.146,7.145
		c-0.861,0.862-2.253,0.857-3.108,0l-12.816-12.814c-0.859-0.859-0.859-2.251,0-3.107l7.146-7.146l-1.183-1.897
		c-3.417-5.488-5.892-11.464-7.355-17.765l-0.506-2.175H14.825c-1.21,0-2.195-0.985-2.195-2.193V78.935
		c0-1.21,0.986-2.195,2.195-2.195h10.111l0.506-2.176c1.466-6.3,3.938-12.275,7.355-17.764l1.182-1.897l-7.146-7.147
		c-0.857-0.859-0.857-2.251,0-3.108L39.65,31.831c0.855-0.856,2.25-0.862,3.108,0l7.146,7.147l1.897-1.182
		c5.488-3.417,11.465-5.893,17.763-7.355l2.176-0.507V19.822c0-1.211,0.985-2.195,2.195-2.195h18.125
		c1.214,0,2.197,0.985,2.197,2.195v10.111l2.177,0.507c6.296,1.466,12.271,3.938,17.765,7.355l1.896,1.182l7.146-7.147
		c0.861-0.861,2.256-0.855,3.108,0l12.815,12.816c0.859,0.859,0.859,2.251,0,3.109l-7.146,7.146l1.182,1.896
		c3.419,5.487,5.892,11.462,7.355,17.765l0.507,2.176h10.109c1.213,0,2.196,0.985,2.196,2.194L153.373,97.063L153.373,97.063z"/>
	<path d="M83.001,59.849c-15.52,0-28.148,12.628-28.148,28.148c0,15.521,12.629,28.148,28.148,28.148
		c15.521,0,28.149-12.627,28.149-28.148C111.148,72.476,98.521,59.849,83.001,59.849z M83.001,110.518
		c-12.416,0-22.519-10.104-22.519-22.521c0-12.417,10.103-22.519,22.519-22.519c12.417,0,22.521,10.102,22.521,22.519
		C105.52,100.414,95.418,110.518,83.001,110.518z"/>
</g>
</svg>
