<?xml version="1.0" encoding="utf-8"?>
<!-- Generator: Adobe Illustrator 16.0.0, SVG Export Plug-In . SVG Version: 6.00 Build 0)  -->
<!DOCTYPE svg PUBLIC "-//W3C//DTD SVG 1.1//EN" "http://www.w3.org/Graphics/SVG/1.1/DTD/svg11.dtd">
<svg version="1.1" id="Capa_1" xmlns="http://www.w3.org/2000/svg" xmlns:xlink="http://www.w3.org/1999/xlink" x="0px" y="0px"
	 width="512px" height="512px" viewBox="0 0 512 512" enable-background="new 0 0 512 512" xml:space="preserve">
<g>
	<g>
		<path d="M269.943,324.173c8.883-0.691,16.981-5.223,22.238-12.45l79.897-110.456c2.448-3.388,2.082-8.064-0.888-11.034
			c-2.97-2.961-7.646-3.328-11.033-0.887L249.686,269.27c-7.202,5.239-11.733,13.338-12.425,22.221
			c-0.691,8.883,2.526,17.578,8.815,23.867c5.726,5.734,13.449,8.909,21.479,8.909C268.348,324.267,269.142,324.232,269.943,324.173
			z M254.276,292.821c0.299-3.899,2.296-7.458,5.436-9.745l67.388-48.751l-48.734,67.371c-2.303,3.166-5.861,5.154-9.762,5.461
			c-3.883,0.256-7.697-1.092-10.471-3.865C255.386,300.535,253.969,296.713,254.276,292.821z"/>
		<path d="M461.09,166.946c-0.085-0.179-0.085-0.367-0.179-0.546c-0.103-0.17-0.265-0.265-0.376-0.427
			c-8.627-14.796-18.833-28.561-30.421-41.037l18.329-18.321l12.066,12.066l36.198-36.207L460.51,46.276l-36.207,36.198
			l12.075,12.075l-18.33,18.321c-12.476-11.588-26.231-21.803-41.036-30.43c-0.162-0.111-0.256-0.273-0.428-0.375
			c-0.179-0.102-0.366-0.094-0.545-0.188c-26.395-15.207-56.047-25.335-87.664-29.047V42.667h12.801
			c11.768,0,21.333-9.566,21.333-21.333C322.509,9.566,312.935,0,301.167,0h-76.8c-11.768,0-21.333,9.566-21.333,21.333
			c0,11.767,9.566,21.333,21.333,21.333h12.8v9.865c-9.216,0.981-18.415,2.483-27.512,4.565c-4.591,1.049-7.466,5.632-6.408,10.223
			c1.049,4.591,5.632,7.476,10.223,6.409c7.851-1.801,15.778-3.157,23.723-4.07l9.156-0.708c2.799-0.213,5.376-0.367,7.885-0.486
			v16.871c0,4.719,3.814,8.533,8.534,8.533c4.719,0,8.533-3.814,8.533-8.533V68.522c32.094,1.477,62.336,10.095,89.225,24.277
			l-8.414,14.566c-2.355,4.088-0.956,9.302,3.123,11.657c1.34,0.776,2.807,1.144,4.258,1.144c2.953,0,5.82-1.527,7.398-4.267
			l8.389-14.532c26.701,16.938,49.382,39.62,66.321,66.321l-14.533,8.388c-4.07,2.355-5.47,7.569-3.105,11.657
			c1.587,2.739,4.445,4.267,7.398,4.267c1.45,0,2.918-0.367,4.258-1.144l14.566-8.414c14.379,27.272,23.023,58.009,24.312,90.616
			h-16.854c-4.719,0-8.533,3.814-8.533,8.533s3.814,8.533,8.533,8.533h16.854c-1.288,32.605-9.933,63.343-24.312,90.615
			l-14.566-8.414c-4.079-2.354-9.302-0.973-11.656,3.123c-2.355,4.088-0.956,9.302,3.123,11.657l14.532,8.388
			c-16.938,26.701-39.621,49.383-66.321,66.321l-8.388-14.532c-2.364-4.096-7.596-5.487-11.657-3.123
			c-4.087,2.355-5.487,7.577-3.123,11.656l8.414,14.566c-26.889,14.183-57.131,22.801-89.225,24.277v-16.793
			c0-4.72-3.814-8.534-8.533-8.534c-4.72,0-8.534,3.814-8.534,8.534v16.861c-13.627-0.47-27.298-2.176-40.755-5.265
			c-4.591-1.102-9.173,1.817-10.223,6.408c-1.058,4.591,1.817,9.173,6.409,10.223c17.033,3.926,34.432,5.905,51.695,5.905
			c0.418,0,0.819-0.025,1.237-0.034c0.06,0,0.103,0.034,0.154,0.034c0.067,0,0.127-0.043,0.195-0.043
			c41.02-0.281,79.506-11.357,112.803-30.489c0.264-0.119,0.546-0.18,0.802-0.333c0.171-0.103,0.265-0.265,0.427-0.375
			c34.467-20.088,63.267-48.854,83.396-83.294c0.162-0.23,0.366-0.41,0.512-0.666c0.103-0.179,0.094-0.367,0.18-0.546
			c19.489-33.792,30.694-72.926,30.694-114.654C491.776,239.872,480.571,200.738,461.09,166.946z M460.501,70.409l12.066,12.066
			l-12.066,12.075l-12.074-12.075L460.501,70.409z M254.233,51.379V25.6h-29.866c-2.347,0-4.267-1.92-4.267-4.267
			s1.92-4.267,4.267-4.267h76.8c2.347,0,4.267,1.92,4.267,4.267s-1.92,4.267-4.267,4.267h-29.866v25.779
			c-2.971-0.12-5.803-0.179-8.533-0.179c-0.24,0-0.513,0.017-0.752,0.017c-0.213,0-0.426-0.017-0.64-0.017
			c-1.399,0-2.799,0.094-4.198,0.119C256.188,51.345,255.258,51.336,254.233,51.379z"/>
		<path d="M185.967,119.467H143.3c-4.719,0-8.533,3.814-8.533,8.533s3.814,8.533,8.533,8.533h42.667
			c4.719,0,8.534-3.814,8.534-8.533S190.686,119.467,185.967,119.467z"/>
		<path d="M185.967,179.2h-85.333c-4.719,0-8.534,3.814-8.534,8.533s3.814,8.533,8.534,8.533h85.333
			c4.719,0,8.534-3.814,8.534-8.533S190.686,179.2,185.967,179.2z"/>
		<path d="M185.967,238.934h-128c-4.719,0-8.533,3.814-8.533,8.533c0,4.719,3.814,8.533,8.533,8.533h128
			c4.719,0,8.534-3.814,8.534-8.533C194.5,242.748,190.686,238.934,185.967,238.934z"/>
		<path d="M185.967,298.667H23.833c-4.719,0-8.533,3.814-8.533,8.533s3.814,8.533,8.533,8.533h162.133
			c4.719,0,8.534-3.814,8.534-8.533S190.686,298.667,185.967,298.667z"/>
		<path d="M185.967,358.4H75.034c-4.719,0-8.533,3.814-8.533,8.533s3.814,8.533,8.533,8.533h110.933
			c4.719,0,8.534-3.814,8.534-8.533S190.686,358.4,185.967,358.4z"/>
		<path d="M185.967,418.134h-59.733c-4.719,0-8.533,3.813-8.533,8.533c0,4.719,3.814,8.533,8.533,8.533h59.733
			c4.719,0,8.534-3.814,8.534-8.533C194.5,421.947,190.686,418.134,185.967,418.134z"/>
	</g>
</g>
</svg>
