<?xml version="1.0" encoding="utf-8"?>
<!-- Generator: Adobe Illustrator 16.0.0, SVG Export Plug-In . SVG Version: 6.00 Build 0)  -->
<!DOCTYPE svg PUBLIC "-//W3C//DTD SVG 1.1//EN" "http://www.w3.org/Graphics/SVG/1.1/DTD/svg11.dtd">
<svg version="1.1" id="Layer_1" xmlns="http://www.w3.org/2000/svg" xmlns:xlink="http://www.w3.org/1999/xlink" x="0px" y="0px"
	 width="240px" height="242px" viewBox="0 0 240 242" enable-background="new 0 0 240 242" xml:space="preserve">
<path fill-rule="evenodd" clip-rule="evenodd" fill="#FFFFFF" d="M235.262,120.593c0.004,62.699-50.083,112.256-113.451,112.249
	c-60.875-0.008-110.891-51.05-110.766-113.039C11.171,57.468,61.377,8.106,124.598,8.158
	C185.588,8.209,235.258,58.673,235.262,120.593z"/>
<path fill-rule="evenodd" clip-rule="evenodd" fill="#29B3A7" d="M95.894,133.127c-3.185,1.529-5.851,2.823-8.528,4.093
	c-17.261,8.187-30.415,20.669-39.437,37.53c-2.96,5.532-3.273,5.494-7.031,0.331C18.175,143.868,18.036,96.756,41.79,64.012
	c23.968-33.04,57.072-47.972,97.412-41.131c42.142,7.147,69.506,32.905,80.19,74.452c7.182,27.928,2.059,54.478-14.313,78.543
	c-0.748,1.1-1.572,2.15-2.422,3.173c-0.285,0.343-0.76,0.528-1.396,0.95c-6.035-12.563-14.201-23.375-24.989-32.09
	c-6.641-5.364-13.925-9.762-21.896-12.76c-4.097-1.541-3.263-2.691-0.818-5.062c7.977-7.734,13.58-16.835,14.791-28.117
	c2.084-19.413-5.171-34.544-21.64-44.913c-15.141-9.533-35.383-8.556-49.902,1.872c-23.026,16.538-25.768,48.418-5.934,69.017
	C92.371,129.502,93.878,131.048,95.894,133.127z"/>
<path fill-rule="evenodd" clip-rule="evenodd" fill="#29B3A7" d="M127.864,219.731c-29.936-0.855-49.636-8.352-67.014-22.111
	c-5.733-4.54-6.449-7.548-3.455-14.226c18.87-42.078,73.746-54.763,111.255-25.693c9.25,7.169,16.397,16.024,20.962,26.859
	c2.385,5.661,1.806,8.335-2.972,12.251C167.315,212.653,145.046,219.972,127.864,219.731z"/>
<path fill-rule="evenodd" clip-rule="evenodd" fill="#29B3A7" d="M156.103,96.193c-0.02,18.394-14.534,32.832-32.978,32.807
	c-18.253-0.025-32.999-14.74-33.021-32.951C90.082,77.614,104.898,62.958,123.514,63C141.819,63.041,156.123,77.609,156.103,96.193z
	"/>
</svg>
