<?xml version="1.0" encoding="utf-8"?>
<!-- Generator: Adobe Illustrator 16.0.0, SVG Export Plug-In . SVG Version: 6.00 Build 0)  -->
<!DOCTYPE svg PUBLIC "-//W3C//DTD SVG 1.1//EN" "http://www.w3.org/Graphics/SVG/1.1/DTD/svg11.dtd">
<svg version="1.1" id="Layer_1" xmlns="http://www.w3.org/2000/svg" xmlns:xlink="http://www.w3.org/1999/xlink" x="0px" y="0px"
	 width="278px" height="277px" viewBox="0 0 278 277" enable-background="new 0 0 278 277" xml:space="preserve">
<path d="M142.983,259.5c-66.794-0.063-120.853-54.181-120.87-121C22.097,71.478,76.453,17.301,143.512,17.501
	c66.781,0.2,120.706,54.425,120.6,121.271C264.004,205.552,209.817,259.562,142.983,259.5z"/>
<path fill="#F7F9FA" d="M113.684,152.229c-25.476,9.319-43.717,26.006-55.019,50.262c-25.951-29.442-34.857-89.732,4.163-134.357
	c38.931-44.524,107.155-48.853,151.111-9.489c46.185,41.357,44.538,106.329,13.804,144.141
	c-5.537-11.776-12.744-22.145-22.199-30.899c-9.512-8.81-20.588-14.978-32.723-19.626c27.638-23.102,23.791-57.813,4.485-76.188
	c-19.572-18.632-51.39-17.841-70.032,1.681C88.826,97.069,87.23,130.501,113.684,152.229z"/>
<path fill="#F7F9FA" d="M143.067,161.717c31.505-0.044,61.146,19.911,72.314,48.475c1.431,3.655,1.22,5.915-1.998,8.7
	c-40.753,35.276-99.649,35.318-140.43,0.095c-3.179-2.745-3.556-4.967-2.106-8.685C82.008,181.641,111.423,161.762,143.067,161.717z
	"/>
<path fill="#F7F9FA" d="M143.335,147.442c-19.528,0.076-35.411-15.562-35.613-35.063c-0.203-19.699,15.736-35.783,35.439-35.759
	c19.48,0.023,35.255,15.79,35.344,35.331C178.593,131.397,162.771,147.364,143.335,147.442z"/>
</svg>
