<?xml version="1.0" encoding="utf-8"?>
<!-- Generator: Adobe Illustrator 16.0.0, SVG Export Plug-In . SVG Version: 6.00 Build 0)  -->
<!DOCTYPE svg PUBLIC "-//W3C//DTD SVG 1.1//EN" "http://www.w3.org/Graphics/SVG/1.1/DTD/svg11.dtd">
<svg version="1.1" id="Capa_1" xmlns="http://www.w3.org/2000/svg" xmlns:xlink="http://www.w3.org/1999/xlink" x="0px" y="0px"
	 width="512px" height="512px" viewBox="0 0 512 512" enable-background="new 0 0 512 512" xml:space="preserve">
<polygon fill="#EFEEEE" points="396.274,504.485 43.585,504.485 43.585,71.64 107.71,7.515 396.274,7.515 "/>
<polygon fill="#CECDCB" points="43.585,71.64 43.585,504.485 83.664,504.485 83.664,31.562 "/>
<polygon fill="#DEDEDC" points="107.71,7.515 107.71,71.64 43.585,71.64 "/>
<g>
	<circle fill="#FAD677" cx="107.71" cy="199.89" r="24.047"/>
</g>
<rect x="83.664" y="103.703" fill="#EE9F54" width="272.532" height="40.078"/>
<path fill="#016CCB" d="M464.299,373.525c-5.922-6.58-16.059-7.115-22.641-1.191L372.807,434.3l-13.291-13.292
	c-6.261-6.261-16.411-6.261-22.672,0s-6.261,16.411,0,22.672l24.047,24.047c5.951,5.951,15.804,6.21,22.061,0.58l80.156-72.141
	C469.688,390.243,470.223,380.107,464.299,373.525z"/>
<path d="M107.71,168.329c-17.403,0-31.562,14.159-31.562,31.562c0,17.403,14.159,31.562,31.562,31.562s31.562-14.159,31.562-31.562
	C139.272,182.487,125.113,168.329,107.71,168.329z M107.71,216.423c-9.116,0-16.532-7.417-16.532-16.532
	c0-9.116,7.417-16.533,16.532-16.533s16.532,7.417,16.532,16.533C124.243,209.006,116.826,216.423,107.71,216.423z"/>
<path d="M171.835,192.376c-4.15,0-7.515,3.364-7.515,7.515c0,4.15,3.365,7.515,7.515,7.515h56.11c4.15,0,7.515-3.365,7.515-7.515
	c0-4.15-3.365-7.515-7.515-7.515H171.835z"/>
<path d="M356.195,192.376h-96.188c-4.15,0-7.515,3.364-7.515,7.515c0,4.15,3.365,7.515,7.515,7.515h96.188
	c4.15,0,7.515-3.365,7.515-7.515C363.71,195.74,360.346,192.376,356.195,192.376z"/>
<path d="M171.835,232.454h-32.063c-4.15,0-7.515,3.364-7.515,7.515v32.063c0,4.15,3.365,7.515,7.515,7.515h32.063
	c4.15,0,7.515-3.364,7.515-7.515v-32.063C179.35,235.818,175.986,232.454,171.835,232.454z M164.321,264.517h-17.033v-17.033h17.033
	V264.517z"/>
<path d="M260.008,248.485h-56.109c-4.15,0-7.515,3.365-7.515,7.515c0,4.15,3.364,7.515,7.515,7.515h56.109
	c4.15,0,7.515-3.364,7.515-7.515C267.522,251.85,264.158,248.485,260.008,248.485z"/>
<path d="M356.195,248.485H292.07c-4.15,0-7.515,3.365-7.515,7.515c0,4.15,3.364,7.515,7.515,7.515h64.125
	c4.15,0,7.515-3.364,7.515-7.515C363.71,251.85,360.346,248.485,356.195,248.485z"/>
<path d="M171.835,296.579h-32.063c-4.15,0-7.515,3.364-7.515,7.515v32.063c0,4.15,3.365,7.516,7.515,7.516h32.063
	c4.15,0,7.515-3.365,7.515-7.516v-32.063C179.35,299.943,175.986,296.579,171.835,296.579z M164.321,328.643h-17.033v-17.034h17.033
	V328.643z"/>
<path d="M203.898,327.641h40.078c4.15,0,7.515-3.365,7.515-7.516s-3.365-7.515-7.515-7.515h-40.078c-4.15,0-7.515,3.364-7.515,7.515
	S199.748,327.641,203.898,327.641z"/>
<path d="M363.71,320.125c0-4.15-3.364-7.515-7.515-7.515h-80.156c-4.15,0-7.515,3.364-7.515,7.515s3.364,7.516,7.515,7.516h80.156
	C360.346,327.641,363.71,324.275,363.71,320.125z"/>
<path d="M171.835,360.705h-32.063c-4.15,0-7.515,3.363-7.515,7.514v32.063c0,4.15,3.365,7.516,7.515,7.516h32.063
	c4.15,0,7.515-3.365,7.515-7.516v-32.063C179.35,364.068,175.986,360.705,171.835,360.705z M164.321,392.768h-17.033v-17.033h17.033
	V392.768z"/>
<path d="M260.008,376.736h-56.109c-4.15,0-7.515,3.364-7.515,7.514c0,4.15,3.364,7.516,7.515,7.516h56.109
	c4.15,0,7.515-3.365,7.515-7.516C267.522,380.101,264.158,376.736,260.008,376.736z"/>
<path d="M363.71,384.25c0-4.149-3.364-7.514-7.515-7.514H292.07c-4.15,0-7.515,3.364-7.515,7.514c0,4.15,3.364,7.516,7.515,7.516
	h64.125C360.346,391.766,363.71,388.4,363.71,384.25z"/>
<path d="M83.664,151.295h196.383c4.15,0,7.515-3.365,7.515-7.515s-3.364-7.515-7.515-7.515H91.178v-25.049h257.502v25.049h-32.033
	c-4.15,0-7.515,3.365-7.515,7.515s3.364,7.515,7.515,7.515h39.548c4.15,0,7.515-3.365,7.515-7.515v-40.078
	c0-4.15-3.364-7.515-7.515-7.515H83.664c-4.15,0-7.515,3.364-7.515,7.515v40.078C76.149,147.931,79.513,151.295,83.664,151.295z"/>
<path d="M292.07,79.155h64.125c4.15,0,7.515-3.365,7.515-7.515c0-4.15-3.364-7.515-7.515-7.515H292.07
	c-4.15,0-7.515,3.365-7.515,7.515C284.556,75.79,287.92,79.155,292.07,79.155z"/>
<path d="M147.789,79.155h112.219c4.15,0,7.515-3.365,7.515-7.515c0-4.15-3.364-7.515-7.515-7.515H147.789
	c-4.15,0-7.515,3.365-7.515,7.515C140.274,75.79,143.639,79.155,147.789,79.155z"/>
<path d="M469.885,368.498c-8.685-9.649-23.604-10.435-33.253-1.75l-32.843,29.561V7.515c0-4.15-3.365-7.515-7.515-7.515H107.71
	c-1.97,0-3.921,0.809-5.313,2.201L38.272,66.327c-1.394,1.392-2.202,3.344-2.202,5.313v432.845c0,4.15,3.365,7.515,7.515,7.515
	h352.689c4.149,0,7.515-3.364,7.515-7.515v-44.821l64.347-57.912c4.675-4.207,7.431-9.984,7.762-16.264
	C476.228,379.207,474.092,373.174,469.885,368.498z M100.196,25.656v38.469H61.727L100.196,25.656z M388.76,496.971H51.1V79.155
	h56.611c4.15,0,7.515-3.365,7.515-7.515V15.029H388.76v394.805l-15.679,14.112l-8.251-8.251c-9.074-9.076-24.223-9.077-33.299,0
	c-9.076,9.076-9.076,24.222,0,33.299l24.047,24.047c4.514,4.515,10.591,6.792,16.675,6.791c5.655,0,11.316-1.969,15.727-5.938
	l0.781-0.702L388.76,496.971L388.76,496.971z M460.889,384.698c-0.12,2.271-1.117,4.362-2.808,5.883l-80.157,72.141
	c-3.313,2.979-8.568,2.843-11.72-0.309l-24.047-24.047c-3.287-3.286-3.276-8.757,0-12.045c3.277-3.287,8.766-3.277,12.044,0
	l13.292,13.292c2.826,2.826,7.369,2.945,10.34,0.271l68.852-61.966C452.197,372.961,461.279,377.259,460.889,384.698z"/>
</svg>
