<?xml version="1.0" encoding="utf-8"?>
<!-- Generator: Adobe Illustrator 16.0.0, SVG Export Plug-In . SVG Version: 6.00 Build 0)  -->
<!DOCTYPE svg PUBLIC "-//W3C//DTD SVG 1.1//EN" "http://www.w3.org/Graphics/SVG/1.1/DTD/svg11.dtd">
<svg version="1.1" id="Layer_1" xmlns="http://www.w3.org/2000/svg" xmlns:xlink="http://www.w3.org/1999/xlink" x="0px" y="0px"
	 width="64px" height="64px" viewBox="0 0 64 64" enable-background="new 0 0 64 64" xml:space="preserve">
<g>
	<g>
		<path fill="#2D2C2C" d="M52,5H12c-2.757,0-5,2.243-5,5v49c0,2.757,2.243,5,5,5h40c2.757,0,5-2.243,5-5V10C57,7.243,54.757,5,52,5z
			"/>
	</g>
	<g>
		<path fill="#EFEEEE" d="M53.026,7.625c0.61,0,1.106,0.491,1.106,1.097v51.556c0,0.605-0.496,1.097-1.106,1.097H10.974
			c-0.611,0-1.106-0.491-1.106-1.097V8.722c0-0.606,0.496-1.097,1.106-1.097H53.026z"/>
	</g>
	<rect x="18.688" y="32" fill="#EE9F54" width="6.563" height="6.219"/>
	<g>
		<g>
			<path d="M25,27h-6c-1.103,0-2-0.897-2-2v-6c0-1.103,0.897-2,2-2h6c1.103,0,2,0.897,2,2v6C27,26.103,26.103,27,25,27z M19,19v6
				h6.002L25,19H19z"/>
		</g>
	</g>
	<g>
		<g>
			<path d="M33,20h-3c-0.553,0-1-0.447-1-1s0.447-1,1-1h3c0.553,0,1,0.447,1,1S33.553,20,33,20z"/>
		</g>
	</g>
	<g>
		<g>
			<path d="M45,24H30c-0.553,0-1-0.447-1-1s0.447-1,1-1h15c0.553,0,1,0.447,1,1S45.553,24,45,24z"/>
		</g>
	</g>
	<g>
		<g>
			<path d="M40,34H30c-0.553,0-1-0.447-1-1s0.447-1,1-1h10c0.553,0,1,0.447,1,1S40.553,34,40,34z"/>
		</g>
	</g>
	<g>
		<g>
			<path d="M45,38H30c-0.553,0-1-0.447-1-1s0.447-1,1-1h15c0.553,0,1,0.447,1,1S45.553,38,45,38z"/>
		</g>
	</g>
	<g>
		<g>
			<path d="M34,47h-4c-0.553,0-1-0.447-1-1s0.447-1,1-1h4c0.553,0,1,0.447,1,1S34.553,47,34,47z"/>
		</g>
	</g>
	<g>
		<g>
			<path d="M45,51H30c-0.553,0-1-0.447-1-1s0.447-1,1-1h15c0.553,0,1,0.447,1,1S45.553,51,45,51z"/>
		</g>
	</g>
	<g>
		<g>
			<path d="M25,40h-6c-1.103,0-2-0.897-2-2v-6c0-1.103,0.897-2,2-2h6c1.103,0,2,0.897,2,2v6C27,39.103,26.103,40,25,40z M19,32v6
				h6.002L25,32H19z"/>
		</g>
	</g>
	<g>
		<g>
			<path d="M25,53h-6c-1.103,0-2-0.897-2-2v-6c0-1.103,0.897-2,2-2h6c1.103,0,2,0.897,2,2v6C27,52.103,26.103,53,25,53z M19,45v6
				h6.002L25,45H19z"/>
		</g>
	</g>
	<g>
		<g>
			<path fill="#026FCC" d="M23,37c-0.256,0-0.512-0.098-0.707-0.293l-2-2c-0.391-0.391-0.391-1.023,0-1.414s1.023-0.391,1.414,0
				L23,34.586l4.293-4.293c0.391-0.391,1.023-0.391,1.414,0s0.391,1.023,0,1.414l-5,5C23.512,36.902,23.256,37,23,37z"/>
		</g>
	</g>
</g>
<polygon fill="#CECDCB" points="9.625,7.625 9.881,61.375 14.368,61.375 14.368,7.625 "/>
</svg>
